<?xml version="1.0" encoding="utf-8"?>
<!-- Generator: Adobe Illustrator 18.0.0, SVG Export Plug-In . SVG Version: 6.00 Build 0)  -->
<!DOCTYPE svg PUBLIC "-//W3C//DTD SVG 1.1//EN" "http://www.w3.org/Graphics/SVG/1.1/DTD/svg11.dtd">
<svg version="1.1" id="Layer_1" xmlns="http://www.w3.org/2000/svg" xmlns:xlink="http://www.w3.org/1999/xlink" x="0px" y="0px"
	 viewBox="0 0 603.4 649.4" enable-background="new 0 0 603.4 649.4" xml:space="preserve">
<polygon fill="#898989" points="152.8,337.6 348.3,176.7 239,161.9 "/>
<polygon fill="#9C9C9C" points="255.7,45.2 349.6,16 245.3,104 "/>
<polygon fill="#444444" points="203,274.6 161.6,365.2 250.8,343.2 "/>
<polygon fill="#A5A5A5" points="259.9,71.5 239,161.9 145,125.7 "/>
<polygon fill="#BEBEBE" points="199.1,100.5 176.1,137.1 146,80.8 "/>
<polygon fill="#3F3F3F" points="196.6,250.2 263.5,196.6 261,238 "/>
<polygon points="209.7,493.8 255.3,450.9 243.4,553.8 "/>
<polygon fill="#AFAFAF" points="250.8,343.2 283.8,424 328,375.4 "/>
<polygon fill="#2B2B2B" points="168.7,446 215.3,441.9 209.7,493.8 "/>
<polygon points="283.8,424 319.3,518.8 403.7,425.2 "/>
<polygon fill="#8E8E8E" points="64.6,350.9 161.6,365.2 105.5,429.9 "/>
<polygon fill="#2A2A2A" points="203,274.6 250.8,343.2 261,238 "/>
<polygon points="243.4,553.8 319.3,518.8 255.3,450.9 "/>
<polygon points="243.4,553.8 302.5,649.4 319.3,518.8 "/>
<polygon fill="#A2A2A2" points="316.6,308.8 406.9,313.3 408.5,224.4 "/>
<polygon fill="#9C9C9C" points="360.3,557.3 449.4,579.7 403.7,425.2 "/>
<polygon fill="#1A1A1A" points="360.3,557.3 403.7,425.2 319.3,518.8 "/>
<polygon fill="#3A3A3A" points="175.1,277.5 161.6,365.2 203,274.6 "/>
<polygon fill="#D8D8D8" points="158.6,249.6 91.2,255.6 136.5,200.4 "/>
<polygon fill="#D3D3D3" points="452,275.3 603.4,289.1 406.9,313.3 "/>
<polygon fill="#898989" points="464,194.7 393.9,154.2 408.5,224.4 "/>
<polygon fill="#A5A5A5" points="406.9,313.3 373,388.8 403.7,425.2 "/>
<polygon fill="#DCDCDC" points="168.7,446 107.2,437.8 64.9,489.8 "/>
<polygon fill="#131313" points="160,406.1 168.7,446 215.3,441.9 "/>
<polygon fill="#707070" points="168.7,446 122.5,464.7 209.7,493.8 "/>
<polygon fill="none" stroke="#7B7B7B" stroke-width="0.6" stroke-miterlimit="10" points="107.2,437.8 160,406.1 105.5,429.9 "/>
<polygon points="107.2,437.8 28.6,420.7 105.5,429.9 "/>
<polygon points="175.1,277.5 203,274.6 196.6,250.2 "/>
<polygon fill="#6E6E6E" points="196.6,250.2 261,238 203,274.6 "/>
<polygon fill="#B1B1B1" points="543.7,377.3 403.7,425.2 406.9,313.3 "/>
<polygon fill="#333333" points="196.6,250.2 158.3,249.6 162.4,264.6 "/>
<polygon fill="#565656" points="196.6,250.2 162.4,264.6 175.1,277.5 "/>
<polygon points="283.8,424 215.3,441.9 209.7,493.8 "/>
<polygon fill="#111111" points="161.6,365.2 160,406.1 250.8,343.2 "/>
<polygon fill="#4E4E4E" points="283.8,424 319.3,518.8 255.3,450.9 "/>
<polygon fill="#4E4E4E" points="373,388.8 283.8,424 403.7,425.2 "/>
<polygon fill="#545454" points="373,388.8 328,375.4 283.8,424 "/>
<polygon points="160,406.1 250.8,343.2 283.8,424 "/>
<polygon fill="#9A9A9A" points="316.6,308.8 328,375.4 250.8,343.2 "/>
<polygon fill="#757575" points="316.6,308.8 406.9,313.3 328,375.4 "/>
<polygon fill="#8A8A8A" points="373,388.8 406.9,313.3 328,375.4 "/>
<polygon fill="#141414" points="356.7,91.8 535.1,45.2 471.1,109.2 "/>
<polygon fill="#4B4B4B" points="283.8,424 160,406.1 215.3,441.9 "/>
<polygon fill="#A5A5A5" points="64.6,350.9 83.3,270.9 0,345.3 "/>
<polygon fill="#727272" points="452,275.3 406.9,313.3 408.5,224.4 "/>
<polygon fill="#4E4E4E" points="452,275.3 408.5,224.4 550,231.8 "/>
<polygon fill="#4E4E4E" points="565.1,191.8 464,194.7 408.5,224.4 "/>
<polygon points="516.9,132.4 464,194.7 393.9,154.2 "/>
<polygon fill="#7F7F7F" points="472.4,108.5 292.6,82.7 349.1,179.9 "/>
<polygon fill="#898989" points="239,161.9 132.7,162.4 136.5,200.4 "/>
<polygon fill="#7C7C7C" points="239,161.9 132.7,162.4 176.1,137.1 "/>
<polygon fill="#CECECE" points="131.6,274.2 161.6,365.2 175.1,277.5 "/>
<polygon fill="#CFCFCF" points="176.1,137.1 146,80.8 132.7,162.4 "/>
<polygon points="259.9,71.5 295.6,169.7 239,161.9 "/>
<polygon fill="#BFBFBF" points="356.7,91.8 354.4,149.2 295.6,169.7 "/>
<polygon fill="#565656" points="177.9,482.9 193.4,529.6 209.7,493.8 "/>
<polygon fill="#F4F4F4" points="408.5,224.4 354.4,149.2 316.6,308.8 "/>
<polygon fill="#575757" points="250.8,343.2 261,238 316.6,308.8 "/>
<polygon fill="#C6C6C6" points="95.2,204.9 132.7,162.4 136.5,200.4 "/>
<polygon fill="#757575" points="52.8,397.6 105.5,429.9 64.6,350.9 "/>
<polygon fill="#141414" points="354.4,149.2 349.2,224.6 296.7,210.4 "/>
<polygon fill="#757575" points="296.7,210.4 295.6,169.7 354.4,149.2 "/>
<polygon fill="#1E1E1E" points="295.6,169.7 262.6,197.5 296.7,210.4 "/>
<polygon fill="#E9E9E9" points="91.2,255.6 69.9,234.8 95.2,204.9 "/>
<polygon fill="#747474" points="136.5,200.4 95.2,204.9 91.2,255.6 "/>
<polygon fill="#C6C6C6" points="196.6,250.2 239,161.9 136.5,200.4 "/>
<polygon fill="#8A8A8A" points="196.6,250.2 158.3,249.6 136.5,200.4 "/>
<polygon fill="#E4E4E4" points="199.1,100.5 146,80.8 164.9,47.7 "/>
<polygon fill="#DFDFDF" points="199,41.9 210.7,11 164.9,47.7 "/>
<polygon fill="#8A8A8A" points="199.1,100.5 258.3,9.4 164.9,47.7 "/>
<polygon fill="#D1D1D1" points="259.9,71.5 283.5,2.8 251.5,19.8 "/>
<polygon fill="#050505" points="199.1,100.5 259.9,71.5 251.5,19.8 "/>
<polygon fill="#DDDDDD" points="279.9,13.9 324.1,0 259.9,71.5 "/>
<polygon points="299.7,58.2 413.9,29.1 356.7,91.8 "/>
<polygon points="160,406.1 168.7,446 107.2,437.8 "/>
<polygon fill="#5F5F5F" points="160,406.1 161.6,365.2 105.5,429.9 "/>
<polygon fill="#FBFBFB" points="107.2,437.8 28.6,420.7 64.9,489.8 "/>
<polygon points="107.2,437.8 160,406.1 105.5,429.9 "/>
<polygon fill="none" stroke="#7B7B7B" stroke-width="0.6" stroke-miterlimit="10" points="107.2,437.8 28.6,420.7 105.5,429.9 "/>
<polygon points="64.6,350.9 17,353 19.8,377.6 "/>
<polygon fill="#070707" points="-0.2,345.9 17,353 19.8,377.6 "/>
<polygon fill="#5E5E5E" points="131.6,274.2 161.6,365.2 64.6,350.9 "/>
<polygon fill="#A0A0A0" points="131.6,274.2 83.3,270.9 64.6,350.9 "/>
<polygon points="158.3,249.6 131.6,274.2 162.4,264.7 "/>
<polygon points="175.1,277.5 131.6,274.2 162.4,264.7 "/>
<polygon fill="#B7B7B7" points="158.3,249.6 131.6,274.2 83.3,270.9 "/>
<polygon fill="#212121" points="83.3,270.9 91.2,255.6 158.3,249.6 "/>
<polygon fill="#DDDDDD" points="78.1,257.1 83.3,270.9 -0.2,345.9 "/>
<polygon fill="#8A8A8A" points="83.3,270.9 69.9,234.8 91.2,255.6 "/>
<polygon fill="#B7B7B7" points="19.8,377.6 105.5,429.9 28.6,420.7 "/>
<polygon fill="#252525" points="28.6,420.7 -0.2,345.9 19.8,377.6 "/>
<polygon fill="#707070" points="52.8,397.6 64.6,350.9 19.8,377.6 "/>
<polygon fill="#979797" points="261,238 316.6,308.8 349.2,224.6 "/>
<polygon fill="#6F6F6F" points="349.2,224.6 296.7,210.4 262.3,238.1 "/>
<polygon points="299.7,58.2 356.7,91.8 295.6,169.7 "/>
<polygon points="354.4,149.2 393.9,154.2 408.5,224.4 "/>
<polygon points="299.7,58.2 295.6,169.7 259.9,71.5 "/>
</svg>
