<?xml version="1.0" encoding="utf-8"?>
<!-- Generator: Adobe Illustrator 18.0.0, SVG Export Plug-In . SVG Version: 6.00 Build 0)  -->
<!DOCTYPE svg PUBLIC "-//W3C//DTD SVG 1.1//EN" "http://www.w3.org/Graphics/SVG/1.1/DTD/svg11.dtd">
<svg version="1.1" id="Layer_1" xmlns="http://www.w3.org/2000/svg" xmlns:xlink="http://www.w3.org/1999/xlink" x="0px" y="0px"
	 viewBox="0 0 14.1 9" enable-background="new 0 0 14.1 9" xml:space="preserve">
<path fill="#FFFFFF" d="M7.6,1L7.6,1c0.4,0.4,0.4,1,0,1.4L2.4,7.2C2,7.6,1.4,7.5,1,7.1l0,0c-0.4-0.4-0.4-1,0-1.4L6.2,1
	C6.6,0.6,7.2,0.6,7.6,1z"/>
<path fill="#FFFFFF" d="M12,1L12,1c0.4,0.4,0.4,1,0,1.4L6,8.1c-0.4,0.4-1,0.4-1.4,0l0,0c-0.4-0.4-0.4-1,0-1.4L10.6,1
	C11,0.6,11.6,0.6,12,1z"/>
<path fill="#FFFFFF" d="M13,4L13,4c0.4,0.4,0.4,1,0,1.4L9.5,8.7c-0.4,0.4-1,0.4-1.4,0l0,0c-0.4-0.4-0.4-1,0-1.4L11.6,4
	C12,3.6,12.6,3.6,13,4z"/>
</svg>
