<?xml version="1.0" encoding="utf-8"?>
<!-- Generator: Adobe Illustrator 18.0.0, SVG Export Plug-In . SVG Version: 6.00 Build 0)  -->
<!DOCTYPE svg PUBLIC "-//W3C//DTD SVG 1.1//EN" "http://www.w3.org/Graphics/SVG/1.1/DTD/svg11.dtd">
<svg version="1.1" id="Layer_1" xmlns="http://www.w3.org/2000/svg" xmlns:xlink="http://www.w3.org/1999/xlink" x="0px" y="0px"
	 viewBox="0 0 803.3 767.5" enable-background="new 0 0 803.3 767.5" xml:space="preserve">
<polygon fill="none" stroke="#D1D1D1" stroke-width="4" stroke-miterlimit="10" points="291.3,767.5 269.5,757.2 287.8,745.6 "/>
<polygon fill="#D1D1D1" points="495.6,719.5 491.7,741.3 474.5,724.3 "/>
<g>
	<polygon points="301.3,409.2 294.6,491.5 324.8,493.5 	"/>
	<polygon points="351.5,497.1 324.8,493.5 363.2,416.8 	"/>
	<polygon points="301.3,409.2 363.2,416.8 324.8,493.5 	"/>
	<polygon fill="#8A8A8A" points="357.4,495.5 351.5,560.4 335.2,494.1 	"/>
	<polygon fill="#8A8A8A" points="289.4,488.4 335.2,494.1 280.8,552.8 	"/>
	<polygon fill="#727272" points="351.5,560.4 335.2,494.1 280.8,552.8 	"/>
</g>
<g>
	<polygon points="624.8,462.8 591.8,444 538.7,536.9 	"/>
	<polygon points="624.8,462.8 538.7,536.9 571.7,555.8 	"/>
</g>
<polygon fill="none" stroke="#000000" stroke-width="4" stroke-miterlimit="10" points="313.5,668.2 318.4,644.6 297.9,653.1 "/>
<polygon fill="#D1D1D1" points="131.9,657.4 129.9,679.5 111.3,664.2 "/>
<polygon fill="none" stroke="#D1D1D1" stroke-width="4" stroke-miterlimit="10" points="0,582.2 22.4,573.3 4,560.9 "/>
<polygon fill="#606060" points="548.3,683.5 571.8,677.7 555.3,662.9 "/>
<polygon fill="none" stroke="#D1D1D1" stroke-width="4" stroke-miterlimit="10" points="167,119.2 147.7,108.7 146.1,130.7 "/>
<g>
	<polygon fill="#606060" points="456.7,628.6 435,625.6 441.3,646.7 	"/>
</g>
<polygon fill="#D1D1D1" points="241.9,470.7 221.2,463.6 223.2,485.5 "/>
<polygon fill="none" stroke="#D1D1D1" stroke-width="4" stroke-miterlimit="10" points="706,644.1 727.4,654.5 724.9,632.8 "/>
<polygon fill="none" stroke="#D1D1D1" stroke-width="4" stroke-miterlimit="10" points="515.5,170.1 501.7,187 522.9,192.7 "/>
<polygon fill="#D1D1D1" points="466.6,516.4 462.1,495 444.4,508 "/>
<polygon fill="none" stroke="#000000" stroke-width="4" stroke-miterlimit="10" points="532.1,638.9 553.3,649.6 534.5,660.8 "/>
<polygon points="49.3,232.5 45.9,210.8 67.6,220.6 "/>
<polygon fill="none" stroke="#000000" stroke-width="4" stroke-miterlimit="10" points="453.7,94.2 456.8,72.4 474.7,88 "/>
<polygon fill="#D1D1D1" points="780.7,289.4 803.3,280.9 785.1,268.2 "/>
<polygon fill="none" stroke="#000000" stroke-width="4" stroke-miterlimit="10" points="363.3,368.9 375.7,348.6 385.3,368.2 "/>
<g>
	<polygon points="658.9,356.3 636,371.6 749.4,541.2 	"/>
	<polygon points="616.4,339.7 637.3,370.9 657.8,357.2 	"/>
	<polygon fill="#D5D5D5" points="612.1,302.7 600.8,287.8 594.1,291.6 	"/>
	<polygon points="772.3,525.9 658.9,356.3 749.4,541.2 	"/>
	<polygon fill="#ACACAC" points="612.1,302.7 594.1,291.6 604.2,308 	"/>
	<polygon fill="#232323" points="618.8,339 635.5,327.9 602.5,308.6 	"/>
	<polygon fill="#4B4B4B" points="635.5,327.9 602.5,308.6 613.2,301.4 	"/>
	<polygon points="636.9,326 657.8,357.2 616.4,339.7 	"/>
</g>
<polygon points="155.2,495.1 153.7,516.9 134.3,506.5 "/>
<polygon points="678,118.9 701.1,124.5 685.3,139.7 "/>
<polygon points="232.8,22.5 246.3,5.1 225,0 "/>
<g>
	<polygon fill="#BEBEBE" points="481.2,310.9 456.3,273.8 462.4,313.2 	"/>
	<polygon fill="#AFAFAF" points="481.2,310.9 461,312.8 460,325 	"/>
	<polygon fill="#A0A0A0" points="481.2,310.9 456.3,273.8 487.8,268.3 	"/>
	<polygon fill="#373737" points="467.3,226.1 476.1,225.4 456.8,216.4 	"/>
	<polygon fill="#505050" points="455.3,212.5 456.8,216.4 476.1,225.4 	"/>
	<polygon fill="#F5F5F5" points="487.8,268.3 495.4,307.8 481.2,310.9 	"/>
	<polygon fill="#414141" points="469,271.8 459,273.2 452.9,234.1 	"/>
	<polygon points="484,440.7 460,325 481.1,374.2 	"/>
	<polygon fill="#585858" points="452.9,234.1 484.6,269.5 469,271.8 	"/>
	<polygon fill="#5A5A5A" points="476.1,225.4 484.6,269.5 467.3,226.1 	"/>
	<polygon fill="#525252" points="501.8,316.9 481.1,374.2 520.5,433.2 	"/>
	<polygon fill="#AFAFAF" points="497.9,306.9 481.2,310.9 500.2,317.5 	"/>
	<polygon fill="#373737" points="452.9,234.1 455.3,212.5 456.8,216.4 	"/>
	<polygon fill="#424242" points="501.8,316.9 460,325 481.1,374.2 	"/>
	<polygon fill="#6B6B6B" points="467.3,226.1 452.9,234.1 484.6,269.5 	"/>
	<polygon fill="#323232" points="494,441.7 481.1,374.2 512.1,438.3 	"/>
	<polygon fill="#434343" points="512.1,438.3 481.1,374.2 520.5,433.2 	"/>
	<polygon fill="#141414" points="494,441.7 481.1,374.2 484,440.7 	"/>
	<polygon fill="#F5F5F5" points="481.2,310.9 460,325 500.2,317.5 	"/>
	<polygon fill="#585858" points="456.8,216.4 452.9,234.1 467.3,226.1 	"/>
</g>
<g>
	<polygon points="84.9,208 133.2,232 133.4,240.1 	"/>
	<polygon points="89,214.6 331.3,161.6 133.4,240.1 	"/>
	<polygon points="89,214.6 350.1,107.4 84.9,208 	"/>
	<polygon points="184,371.4 133.4,240.1 179.1,368.2 	"/>
	<polygon points="354.2,114.3 331.3,161.6 89,214.6 	"/>
	<polygon points="84.9,208 133.4,240.1 89,214.6 	"/>
	<polygon points="133,248.1 133.4,240.1 179.1,368.2 	"/>
	<polygon points="184,371.4 331.3,161.6 133.4,240.1 	"/>
	<polygon points="184,371.4 381.7,293.2 331.3,161.6 	"/>
	<polygon points="350.1,107.4 89,214.6 354.2,114.3 	"/>
	<polygon fill="#D6D6D6" points="155.8,247.6 318.2,183 336.8,231.7 	"/>
	<polygon fill="#D6D6D6" points="336.8,231.7 155.8,247.6 174.4,296.3 	"/>
	<polygon fill="#C1C1C1" points="195.8,352.2 358.3,287.7 177.1,303.2 	"/>
	<polygon fill="#C1C1C1" points="339.5,238.7 358.3,287.7 177.1,303.2 	"/>
</g>
<g>
	<polygon fill="#8C8C8C" points="98.8,365.5 150.3,379 118.4,412.2 	"/>
	<polygon fill="#626262" points="166.5,376.2 150.4,349.7 150.3,379 	"/>
	<polygon points="118.4,412.2 89.7,409.6 99.2,443.4 	"/>
	<polygon fill="#939393" points="150.3,379 166.5,376.2 141.5,418.9 	"/>
	<polygon fill="#575757" points="150.3,379 118.3,340.3 98.8,365.5 	"/>
	<polygon fill="#474747" points="101.9,345.6 118.3,340.3 98.8,365.5 	"/>
	<polygon fill="#9E9E9E" points="98.8,365.5 85.5,358.2 89.7,409.6 	"/>
	<polygon points="118.4,412.2 141.5,418.9 119.1,447 	"/>
	<polygon points="118.4,412.2 119.1,447 99.2,443.4 	"/>
	<polygon fill="#626262" points="118.3,340.3 150.3,379 150.4,349.7 	"/>
	<polygon points="87.1,437.9 99.2,443.4 89.7,409.6 	"/>
	<polygon fill="#8C8C8C" points="150.3,379 141.5,418.9 118.4,412.2 	"/>
	<polygon fill="#626262" points="98.8,365.5 101.9,345.6 85.5,358.2 	"/>
	<polygon points="119.1,447 134.5,446.4 141.5,418.9 	"/>
	<polygon fill="#939393" points="118.4,412.2 89.7,409.6 98.8,365.5 	"/>
</g>
</svg>
