<?xml version="1.0" encoding="utf-8"?>
<!-- Generator: Adobe Illustrator 18.0.0, SVG Export Plug-In . SVG Version: 6.00 Build 0)  -->
<!DOCTYPE svg PUBLIC "-//W3C//DTD SVG 1.1//EN" "http://www.w3.org/Graphics/SVG/1.1/DTD/svg11.dtd">
<svg version="1.1" id="Layer_1" xmlns="http://www.w3.org/2000/svg" xmlns:xlink="http://www.w3.org/1999/xlink" x="0px" y="0px"
	 viewBox="0 0 803.3 767.5" enable-background="new 0 0 803.3 767.5" xml:space="preserve">
<polygon fill="none" stroke="#D1D1D1" stroke-width="4" stroke-miterlimit="10" points="511.9,767.5 533.8,757.2 515.5,745.6 "/>
<polygon fill="#D1D1D1" points="307.7,719.5 311.6,741.3 328.8,724.3 "/>
<g>
	<polygon points="502,409.2 508.7,491.5 478.5,493.5 	"/>
	<polygon points="451.8,497.1 478.5,493.5 440,416.8 	"/>
	<polygon points="502,409.2 440,416.8 478.5,493.5 	"/>
	<polygon fill="#8A8A8A" points="445.8,495.5 451.8,560.4 468.1,494.1 	"/>
	<polygon fill="#8A8A8A" points="513.8,488.4 468.1,494.1 522.4,552.8 	"/>
	<polygon fill="#727272" points="451.8,560.4 468.1,494.1 522.4,552.8 	"/>
</g>
<g>
	<polygon points="178.5,462.8 211.5,444 264.6,536.9 	"/>
	<polygon points="178.5,462.8 264.6,536.9 231.5,555.8 	"/>
</g>
<polygon fill="none" stroke="#000000" stroke-width="4" stroke-miterlimit="10" points="489.8,668.2 484.9,644.6 505.4,653.1 "/>
<polygon fill="#D1D1D1" points="671.4,657.4 673.3,679.5 692,664.2 "/>
<polygon fill="none" stroke="#D1D1D1" stroke-width="4" stroke-miterlimit="10" points="803.3,582.2 780.8,573.3 799.2,560.9 "/>
<polygon fill="#606060" points="254.9,683.5 231.5,677.7 248,662.9 "/>
<polygon fill="none" stroke="#D1D1D1" stroke-width="4" stroke-miterlimit="10" points="636.3,119.2 655.5,108.7 657.2,130.7 "/>
<g>
	<polygon fill="#606060" points="346.5,628.6 368.2,625.6 362,646.7 	"/>
</g>
<polygon fill="#D1D1D1" points="561.4,470.7 582.1,463.6 580,485.5 "/>
<polygon fill="none" stroke="#D1D1D1" stroke-width="4" stroke-miterlimit="10" points="97.2,644.1 75.8,654.5 78.4,632.8 "/>
<polygon fill="none" stroke="#D1D1D1" stroke-width="4" stroke-miterlimit="10" points="287.7,170.1 301.6,187 280.4,192.7 "/>
<polygon fill="#D1D1D1" points="336.6,516.4 341.2,495 358.9,508 "/>
<polygon fill="none" stroke="#000000" stroke-width="4" stroke-miterlimit="10" points="271.2,638.9 249.9,649.6 268.8,660.8 "/>
<polygon points="754,232.5 757.4,210.8 735.7,220.6 "/>
<polygon fill="none" stroke="#000000" stroke-width="4" stroke-miterlimit="10" points="349.6,94.2 346.5,72.4 328.5,88 "/>
<polygon fill="#D1D1D1" points="22.6,289.4 0,280.9 18.1,268.2 "/>
<polygon fill="none" stroke="#000000" stroke-width="4" stroke-miterlimit="10" points="440,368.9 427.5,348.6 418,368.2 "/>
<g>
	<polygon points="144.3,356.3 167.3,371.6 53.9,541.2 	"/>
	<polygon points="186.8,339.7 166,370.9 145.5,357.2 	"/>
	<polygon fill="#D5D5D5" points="191.1,302.7 202.5,287.8 209.2,291.6 	"/>
	<polygon points="30.9,525.9 144.3,356.3 53.9,541.2 	"/>
	<polygon fill="#ACACAC" points="191.1,302.7 209.2,291.6 199,308 	"/>
	<polygon fill="#232323" points="184.5,339 167.8,327.9 200.7,308.6 	"/>
	<polygon fill="#4B4B4B" points="167.8,327.9 200.7,308.6 190.1,301.4 	"/>
	<polygon points="166.3,326 145.5,357.2 186.8,339.7 	"/>
</g>
<polygon points="648,495.1 649.6,516.9 669,506.5 "/>
<polygon points="125.3,118.9 102.2,124.5 117.9,139.7 "/>
<polygon points="570.5,22.5 557,5.1 578.3,0 "/>
<g>
	<polygon fill="#BEBEBE" points="322.1,310.9 347,273.8 340.9,313.2 	"/>
	<polygon fill="#AFAFAF" points="322.1,310.9 342.2,312.8 343.3,325 	"/>
	<polygon fill="#A0A0A0" points="322.1,310.9 347,273.8 315.5,268.3 	"/>
	<polygon fill="#373737" points="336,226.1 327.1,225.4 346.4,216.4 	"/>
	<polygon fill="#505050" points="348,212.5 346.4,216.4 327.1,225.4 	"/>
	<polygon fill="#F5F5F5" points="315.5,268.3 307.9,307.8 322.1,310.9 	"/>
	<polygon fill="#414141" points="334.3,271.8 344.3,273.2 350.4,234.1 	"/>
	<polygon points="319.3,440.7 343.3,325 322.2,374.2 	"/>
	<polygon fill="#585858" points="350.4,234.1 318.7,269.5 334.3,271.8 	"/>
	<polygon fill="#5A5A5A" points="327.1,225.4 318.7,269.5 336,226.1 	"/>
	<polygon fill="#525252" points="301.4,316.9 322.2,374.2 282.7,433.2 	"/>
	<polygon fill="#AFAFAF" points="305.4,306.9 322.1,310.9 303,317.5 	"/>
	<polygon fill="#373737" points="350.4,234.1 348,212.5 346.4,216.4 	"/>
	<polygon fill="#424242" points="301.4,316.9 343.3,325 322.2,374.2 	"/>
	<polygon fill="#6B6B6B" points="336,226.1 350.4,234.1 318.7,269.5 	"/>
	<polygon fill="#323232" points="309.3,441.7 322.2,374.2 291.1,438.3 	"/>
	<polygon fill="#434343" points="291.1,438.3 322.2,374.2 282.7,433.2 	"/>
	<polygon fill="#141414" points="309.3,441.7 322.2,374.2 319.3,440.7 	"/>
	<polygon fill="#F5F5F5" points="322.1,310.9 343.3,325 303,317.5 	"/>
	<polygon fill="#585858" points="346.4,216.4 350.4,234.1 336,226.1 	"/>
</g>
<g>
	<polygon points="718.3,208 670,232 669.8,240.1 	"/>
	<polygon points="714.3,214.6 471.9,161.6 669.8,240.1 	"/>
	<polygon points="714.3,214.6 453.1,107.4 718.3,208 	"/>
	<polygon points="619.3,371.4 669.8,240.1 624.2,368.2 	"/>
	<polygon points="449.1,114.3 471.9,161.6 714.3,214.6 	"/>
	<polygon points="718.3,208 669.8,240.1 714.3,214.6 	"/>
	<polygon points="670.3,248.1 669.8,240.1 624.2,368.2 	"/>
	<polygon points="619.3,371.4 471.9,161.6 669.8,240.1 	"/>
	<polygon points="619.3,371.4 421.5,293.2 471.9,161.6 	"/>
	<polygon points="453.1,107.4 714.3,214.6 449.1,114.3 	"/>
	<polygon fill="#D6D6D6" points="647.5,247.6 485.1,183 466.4,231.7 	"/>
	<polygon fill="#D6D6D6" points="466.4,231.7 647.5,247.6 628.8,296.3 	"/>
	<polygon fill="#C1C1C1" points="607.4,352.2 445,287.7 626.2,303.2 	"/>
	<polygon fill="#C1C1C1" points="463.8,238.7 445,287.7 626.2,303.2 	"/>
</g>
<g>
	<polygon fill="#8C8C8C" points="704.5,365.5 652.9,379 684.8,412.2 	"/>
	<polygon fill="#626262" points="636.8,376.2 652.9,349.7 652.9,379 	"/>
	<polygon points="684.8,412.2 713.6,409.6 704.1,443.4 	"/>
	<polygon fill="#939393" points="652.9,379 636.8,376.2 661.8,418.9 	"/>
	<polygon fill="#575757" points="652.9,379 685,340.3 704.5,365.5 	"/>
	<polygon fill="#474747" points="701.4,345.6 685,340.3 704.5,365.5 	"/>
	<polygon fill="#9E9E9E" points="704.5,365.5 717.8,358.2 713.6,409.6 	"/>
	<polygon points="684.8,412.2 661.8,418.9 684.2,447 	"/>
	<polygon points="684.8,412.2 684.2,447 704.1,443.4 	"/>
	<polygon fill="#626262" points="685,340.3 652.9,379 652.9,349.7 	"/>
	<polygon points="716.1,437.9 704.1,443.4 713.6,409.6 	"/>
	<polygon fill="#8C8C8C" points="652.9,379 661.8,418.9 684.8,412.2 	"/>
	<polygon fill="#626262" points="704.5,365.5 701.4,345.6 717.8,358.2 	"/>
	<polygon points="684.2,447 668.7,446.4 661.8,418.9 	"/>
	<polygon fill="#939393" points="684.8,412.2 713.6,409.6 704.5,365.5 	"/>
</g>
</svg>
