<?xml version="1.0" encoding="utf-8"?>
<!-- Generator: Adobe Illustrator 18.0.0, SVG Export Plug-In . SVG Version: 6.00 Build 0)  -->
<!DOCTYPE svg PUBLIC "-//W3C//DTD SVG 1.1//EN" "http://www.w3.org/Graphics/SVG/1.1/DTD/svg11.dtd">
<svg version="1.1" id="Layer_1" xmlns="http://www.w3.org/2000/svg" xmlns:xlink="http://www.w3.org/1999/xlink" x="0px" y="0px"
	 viewBox="0 0 463.4 275.7" enable-background="new 0 0 463.4 275.7" xml:space="preserve">
<polygon fill="#0D0D0D" points="122.9,72.7 112,26.6 100.6,72.7 "/>
<polygon fill="#181818" points="387.1,49.4 448.3,92.5 334.7,112.3 "/>
<polygon points="231,56.9 108.3,145.7 60.8,165.8 "/>
<polygon fill="#8F8F8F" points="448.3,92.5 457.8,74.4 427,71 "/>
<polygon points="87.6,154.5 116,200.3 159.2,156 "/>
<polygon fill="#D1D1D1" points="463.4,153 423.8,214.8 459.3,198.1 "/>
<polygon fill="#D1D1D1" points="322,200.7 384.8,179.6 333.3,236.8 "/>
<polygon fill="#494949" points="448.3,92.5 457.8,74.4 462.6,93.2 "/>
<polygon fill="#5E5E5E" points="443.1,111.2 448.3,92.5 429.8,89.8 "/>
<polygon fill="#8F8F8F" points="448.3,92.5 462.6,93.2 443.1,111.2 "/>
<polygon fill="#D1D1D1" points="203.4,267.3 251.9,264.7 322,200.7 "/>
<polygon fill="#D1D1D1" points="322,200.7 203.4,267.3 215.9,236.4 "/>
<polygon points="179.3,90.3 257.6,33.8 263.1,36.3 "/>
<polygon fill="#2B2B2B" points="387.1,49.4 407.7,14 428,86.3 "/>
<polygon points="316.7,74.3 281.6,56 225.3,116.5 "/>
<polygon points="231,55.9 173.7,120.7 153.8,112 "/>
<polygon points="329.7,83.6 314.6,57 281.6,56 "/>
<polygon fill="#D1D1D1" points="65.1,262.6 141.3,275.7 203.4,267.3 "/>
<polygon points="241.3,99.6 281.6,56 231,55.9 "/>
<polygon points="153.8,112 173.7,120.7 102.6,148 "/>
<polygon points="438,165.7 463.4,153 443.1,111.2 "/>
<polygon points="49,220 58.8,196.7 12.5,199.6 "/>
<polygon fill="#D1D1D1" points="251.9,264.7 203.4,267.3 203.8,274.3 "/>
<polygon fill="#D1D1D1" points="36.7,254.1 70.9,241.6 65.1,262.6 "/>
<polygon fill="#B0B0B0" points="229.2,121.5 215.9,236.4 322,200.7 "/>
<polygon points="173.7,120.7 241.3,99.6 201.8,88.8 "/>
<polygon points="314.6,57 304.3,0 231,55.9 "/>
<polygon points="157.9,125.5 87.6,154.5 141.3,158 "/>
<polygon fill="#D1D1D1" points="36.7,254.1 70.9,241.6 49,220 "/>
<polygon points="304.3,0 345.8,14.5 314.6,57 "/>
<polygon fill="#D1D1D1" points="333.3,236.8 251.9,264.7 322,200.7 "/>
<polygon points="49,220 127.6,187 129.2,176.4 "/>
<polygon fill="#D1D1D1" points="215.9,236.4 65.1,262.6 203.4,267.3 "/>
<polygon fill="#8F8F8F" points="427,71 449.5,51.7 436.2,18.4 "/>
<polygon fill="#2B2B2B" points="387.1,49.4 346.7,103 351.2,57.8 "/>
<polygon fill="#121212" points="58.8,196.7 129.2,176.4 31.1,178.4 "/>
<polygon points="113.3,164 129.2,176.4 31.1,178.4 "/>
<polygon fill="#494949" points="436.2,18.4 449.5,51.7 443.3,20.3 "/>
<polygon fill="#A5A5A5" points="322,200.7 326.8,105 229.2,121.5 "/>
<polygon points="113.3,164 87.6,154.5 31.1,178.4 "/>
<polygon fill="#D1D1D1" points="36.7,254.1 49,220 5.3,238.6 "/>
<polygon fill="#D1D1D1" points="203.4,267.3 203.8,274.3 150.3,274 "/>
<polygon fill="#A5A5A5" points="215.9,236.4 203.8,183 229.2,121.5 "/>
<polygon fill="#D1D1D1" points="70.9,241.6 65.1,262.6 215.9,236.4 "/>
<polygon fill="#D1D1D1" points="423.8,214.8 384.8,179.6 333.3,236.8 "/>
<polygon fill="#D1D1D1" points="49,220 5.3,238.6 12.5,199.6 "/>
<polygon points="58.8,196.7 12.5,199.6 31.1,178.4 "/>
<polygon points="443.1,111.2 424.2,124.4 428.1,125.5 "/>
<polygon points="231,55.9 241.3,99.6 201.8,88.8 "/>
<polygon fill="#181818" points="425.7,81 436.2,18.4 407.7,14 "/>
<polygon fill="#D1D1D1" points="170.4,238.7 70.9,241.6 49,220 "/>
<polygon fill="#D1D1D1" points="0,225.7 12.5,199.6 5.3,238.6 "/>
<polygon fill="#A5A5A5" points="120.8,236.8 130.6,166.8 170.4,238.7 "/>
<polygon points="438,165.7 443.1,111.2 396.9,154.7 "/>
<polygon points="314.6,57 367.3,74.3 337,97.7 "/>
<polygon points="373.6,55 314.6,57 367.3,74.3 "/>
<polygon fill="#494949" points="427,71 457.8,74.4 449.5,51.7 "/>
<polygon fill="#0D0D0D" points="95.8,80.6 128.2,80.6 128.2,85.2 "/>
<polygon fill="#494949" points="462.6,93.2 443.1,111.2 463.4,153 "/>
<polygon fill="#D1D1D1" points="463.4,153 384.8,179.6 423.8,214.8 "/>
<polygon points="157.9,125.5 168.6,143.5 143.6,152.8 "/>
<polygon points="429.8,89.8 424.2,124.4 443.1,111.2 "/>
<polygon fill="#494949" points="331.8,69.5 326.8,105 303.2,74.1 "/>
<polygon fill="#494949" points="352.8,103.4 396.9,154.7 326.8,105 "/>
<polygon points="49,220 127.6,187 120.8,236.8 "/>
<polygon points="129.2,176.4 58.8,196.7 49,220 "/>
<polygon fill="#5E5E5E" points="429.8,89.8 424.2,124.4 413,94 "/>
<polygon points="345.8,14.5 373.6,55 314.6,57 "/>
<polygon fill="#8F8F8F" points="429.8,89.8 427,71 394.7,100.3 "/>
<polygon fill="#B0B0B0" points="203.8,183 170.4,238.7 215.9,236.4 "/>
<polygon points="322,200.7 365.2,185.8 326.8,105 "/>
<polygon points="370,102.3 352.8,103.4 391.2,114.7 "/>
<polygon fill="#494949" points="388.9,116.4 424.2,124.4 413.3,94.7 "/>
<polygon fill="#636363" points="396.9,154.7 352.8,103.4 428.1,125.5 "/>
<polygon fill="#8F8F8F" points="370,102.3 326.8,105 331.8,69.5 "/>
<polygon points="438.1,162 365.2,185.8 396.9,154.7 "/>
<polygon fill="#A5A5A5" points="170.4,238.7 163.3,186.8 203.8,183 "/>
<polygon fill="#B0B0B0" points="163.3,186.8 142.6,189.7 170.4,238.7 "/>
<polygon fill="#636363" points="413.2,94.7 370,102.3 391.3,114.7 "/>
<polygon fill="#5E5E5E" points="326.8,105 303.2,74.1 307.6,118.1 "/>
<polygon fill="#5E5E5E" points="365.2,185.8 396.9,154.7 326.8,105 "/>
<polygon fill="#666666" points="105,70.9 112,41.3 118.4,70.9 "/>
<g>
	<polygon fill="#FDFDFD" points="256.8,46 289,71.4 301.4,28.6 	"/>
	<polygon fill="#FDFDFD" points="296,57.3 281.8,28.6 304.9,47.5 	"/>
	<polygon fill="#FDFDFD" points="296.2,57.3 273.1,36.5 282,28.6 	"/>
</g>
<polygon fill="#494949" points="429.8,89.8 427,71 448.3,92.5 "/>
<polygon fill="#0D0D0D" points="99.8,100.8 105.8,60 91.3,100.8 "/>
<polygon fill="#0D0D0D" points="124.6,75.6 100.2,71.6 124.6,71.6 "/>
<polygon fill="#0D0D0D" points="117.8,60 123.8,100.8 132.2,100.8 "/>
<polygon fill="#0D0D0D" points="100.2,71.6 100.2,75.6 124.6,75.6 "/>
<polygon fill="#0D0D0D" points="95.8,80.6 95.8,85.2 128.2,85.2 "/>
<polygon fill="#A5A5A5" points="143.6,152.8 130.6,166.8 142.6,189.7 "/>
<polygon points="157.9,125.5 181,168 241.3,99.6 "/>
<polygon fill="#B0B0B0" points="203.8,183 232.3,114 168.6,143.5 "/>
<polygon fill="#B0B0B0" points="211.5,123.6 308.8,118.5 303.2,74.1 "/>
<polygon fill="#B5B5B5" points="203.8,183 168.6,143.5 142.6,189.7 "/>
<polygon fill="#B0B0B0" points="168.6,143.5 143.6,152.8 142.6,189.7 "/>
</svg>
