<?xml version="1.0" encoding="utf-8"?>
<!-- Generator: Adobe Illustrator 18.0.0, SVG Export Plug-In . SVG Version: 6.00 Build 0)  -->
<!DOCTYPE svg PUBLIC "-//W3C//DTD SVG 1.1//EN" "http://www.w3.org/Graphics/SVG/1.1/DTD/svg11.dtd">
<svg version="1.1" id="Layer_1" xmlns="http://www.w3.org/2000/svg" xmlns:xlink="http://www.w3.org/1999/xlink" x="0px" y="0px"
	 viewBox="0 0 463.4 275.7" enable-background="new 0 0 463.4 275.7" xml:space="preserve">
<polygon fill="#0D0D0D" points="340.5,72.7 351.4,26.6 362.8,72.7 "/>
<polygon fill="#181818" points="76.3,49.4 15.1,92.5 128.7,112.3 "/>
<polygon points="232.3,56.9 355,145.7 402.5,165.8 "/>
<polygon fill="#8F8F8F" points="15.1,92.5 5.6,74.4 36.3,71 "/>
<polygon points="375.8,154.5 347.4,200.3 304.2,156 "/>
<polygon fill="#D1D1D1" points="0,153 39.5,214.8 4.1,198.1 "/>
<polygon fill="#D1D1D1" points="141.4,200.7 78.6,179.6 130,236.8 "/>
<polygon fill="#494949" points="15.1,92.5 5.6,74.4 0.8,93.2 "/>
<polygon fill="#5E5E5E" points="20.3,111.2 15.1,92.5 33.6,89.8 "/>
<polygon fill="#8F8F8F" points="15.1,92.5 0.8,93.2 20.3,111.2 "/>
<polygon fill="#D1D1D1" points="260,267.3 211.4,264.7 141.4,200.7 "/>
<polygon fill="#D1D1D1" points="141.4,200.7 260,267.3 247.5,236.4 "/>
<polygon points="284,90.3 205.8,33.8 200.3,36.3 "/>
<polygon fill="#2B2B2B" points="76.3,49.4 55.7,14 35.4,86.3 "/>
<polygon points="146.7,74.3 181.8,56 238,116.5 "/>
<polygon points="232.3,55.9 289.7,120.7 309.5,112 "/>
<polygon points="133.7,83.6 148.7,57 181.8,56 "/>
<polygon fill="#D1D1D1" points="398.3,262.6 322,275.7 260,267.3 "/>
<polygon points="222,99.6 181.8,56 232.3,55.9 "/>
<polygon points="309.5,112 289.7,120.7 360.8,148 "/>
<polygon points="25.4,165.7 0,153 20.3,111.2 "/>
<polygon points="414.4,220 404.5,196.7 450.9,199.6 "/>
<polygon fill="#D1D1D1" points="211.4,264.7 260,267.3 259.5,274.3 "/>
<polygon fill="#D1D1D1" points="426.7,254.1 392.5,241.6 398.3,262.6 "/>
<polygon fill="#B0B0B0" points="234.2,121.5 247.5,236.4 141.4,200.7 "/>
<polygon points="289.7,120.7 222,99.6 261.5,88.8 "/>
<polygon points="148.7,57 159,0 232.3,55.9 "/>
<polygon points="305.4,125.5 375.8,154.5 322.1,158 "/>
<polygon fill="#D1D1D1" points="426.7,254.1 392.5,241.6 414.4,220 "/>
<polygon points="159,0 117.5,14.5 148.7,57 "/>
<polygon fill="#D1D1D1" points="130,236.8 211.4,264.7 141.4,200.7 "/>
<polygon points="414.4,220 335.8,187 334.2,176.4 "/>
<polygon fill="#D1D1D1" points="247.5,236.4 398.3,262.6 260,267.3 "/>
<polygon fill="#8F8F8F" points="36.3,71 13.9,51.7 27.2,18.4 "/>
<polygon fill="#2B2B2B" points="76.3,49.4 116.7,103 112.2,57.8 "/>
<polygon fill="#121212" points="404.5,196.7 334.2,176.4 432.3,178.4 "/>
<polygon points="350,164 334.2,176.4 432.3,178.4 "/>
<polygon fill="#494949" points="27.2,18.4 13.9,51.7 20,20.3 "/>
<polygon fill="#A5A5A5" points="141.4,200.7 136.5,105 234.2,121.5 "/>
<polygon points="350,164 375.8,154.5 432.3,178.4 "/>
<polygon fill="#D1D1D1" points="426.7,254.1 414.4,220 458,238.6 "/>
<polygon fill="#D1D1D1" points="260,267.3 259.5,274.3 313,274 "/>
<polygon fill="#A5A5A5" points="247.5,236.4 259.6,183 234.2,121.5 "/>
<polygon fill="#D1D1D1" points="392.5,241.6 398.3,262.6 247.5,236.4 "/>
<polygon fill="#D1D1D1" points="39.5,214.8 78.6,179.6 130,236.8 "/>
<polygon fill="#D1D1D1" points="414.4,220 458,238.6 450.9,199.6 "/>
<polygon points="404.5,196.7 450.9,199.6 432.3,178.4 "/>
<polygon points="20.3,111.2 39.2,124.4 35.3,125.5 "/>
<polygon points="232.3,55.9 222,99.6 261.5,88.8 "/>
<polygon fill="#181818" points="37.7,81 27.2,18.4 55.7,14 "/>
<polygon fill="#D1D1D1" points="293,238.7 392.5,241.6 414.4,220 "/>
<polygon fill="#D1D1D1" points="463.4,225.7 450.9,199.6 458,238.6 "/>
<polygon fill="#A5A5A5" points="342.6,236.8 332.8,166.8 293,238.7 "/>
<polygon points="25.4,165.7 20.3,111.2 66.4,154.7 "/>
<polygon points="148.7,57 96,74.3 126.4,97.7 "/>
<polygon points="89.8,55 148.7,57 96,74.3 "/>
<polygon fill="#494949" points="36.3,71 5.6,74.4 13.9,51.7 "/>
<polygon fill="#0D0D0D" points="367.5,80.6 335.2,80.6 335.2,85.2 "/>
<polygon fill="#494949" points="0.8,93.2 20.3,111.2 0,153 "/>
<polygon fill="#D1D1D1" points="0,153 78.6,179.6 39.5,214.8 "/>
<polygon points="305.4,125.5 294.8,143.5 319.7,152.8 "/>
<polygon points="33.6,89.8 39.2,124.4 20.3,111.2 "/>
<polygon fill="#494949" points="131.5,69.5 136.5,105 160.2,74.1 "/>
<polygon fill="#494949" points="110.6,103.4 66.4,154.7 136.5,105 "/>
<polygon points="414.4,220 335.8,187 342.6,236.8 "/>
<polygon points="334.2,176.4 404.5,196.7 414.4,220 "/>
<polygon fill="#5E5E5E" points="33.6,89.8 39.2,124.4 50.3,94 "/>
<polygon points="117.5,14.5 89.8,55 148.7,57 "/>
<polygon fill="#8F8F8F" points="33.6,89.8 36.3,71 68.7,100.3 "/>
<polygon fill="#B0B0B0" points="259.6,183 293,238.7 247.5,236.4 "/>
<polygon points="141.4,200.7 98.2,185.8 136.5,105 "/>
<polygon points="93.4,102.3 110.6,103.4 72.1,114.7 "/>
<polygon fill="#494949" points="74.5,116.4 39.2,124.4 50.1,94.7 "/>
<polygon fill="#636363" points="66.4,154.7 110.6,103.4 35.3,125.5 "/>
<polygon fill="#8F8F8F" points="93.4,102.3 136.5,105 131.5,69.5 "/>
<polygon points="25.3,162 98.2,185.8 66.4,154.7 "/>
<polygon fill="#A5A5A5" points="293,238.7 300,186.8 259.6,183 "/>
<polygon fill="#B0B0B0" points="300,186.8 320.8,189.7 293,238.7 "/>
<polygon fill="#636363" points="50.2,94.7 93.4,102.3 72.1,114.7 "/>
<polygon fill="#5E5E5E" points="136.5,105 160.2,74.1 155.8,118.1 "/>
<polygon fill="#5E5E5E" points="98.2,185.8 66.4,154.7 136.5,105 "/>
<polygon fill="#666666" points="358.3,70.9 351.4,41.3 345,70.9 "/>
<g>
	<polygon fill="#FDFDFD" points="206.6,46 174.3,71.4 162,28.6 	"/>
	<polygon fill="#FDFDFD" points="167.4,57.3 181.6,28.6 158.5,47.5 	"/>
	<polygon fill="#FDFDFD" points="167.2,57.3 190.3,36.5 181.3,28.6 	"/>
</g>
<polygon fill="#494949" points="33.6,89.8 36.3,71 15.1,92.5 "/>
<polygon fill="#0D0D0D" points="363.6,100.8 357.6,60 372,100.8 "/>
<polygon fill="#0D0D0D" points="338.8,75.6 363.2,71.6 338.8,71.6 "/>
<polygon fill="#0D0D0D" points="345.6,60 339.6,100.8 331.1,100.8 "/>
<polygon fill="#0D0D0D" points="363.2,71.6 363.2,75.6 338.8,75.6 "/>
<polygon fill="#0D0D0D" points="367.5,80.6 367.5,85.2 335.2,85.2 "/>
<polygon fill="#A5A5A5" points="319.7,152.8 332.8,166.8 320.8,189.7 "/>
<polygon points="305.4,125.5 282.4,168 222,99.6 "/>
<polygon fill="#B0B0B0" points="259.6,183 231,114 294.8,143.5 "/>
<polygon fill="#B0B0B0" points="251.9,123.6 154.5,118.5 160.2,74.1 "/>
<polygon fill="#B5B5B5" points="259.6,183 294.8,143.5 320.8,189.7 "/>
<polygon fill="#B0B0B0" points="294.8,143.5 319.7,152.8 320.8,189.7 "/>
</svg>
