<?xml version="1.0" encoding="utf-8"?>
<!-- Generator: Adobe Illustrator 18.0.0, SVG Export Plug-In . SVG Version: 6.00 Build 0)  -->
<!DOCTYPE svg PUBLIC "-//W3C//DTD SVG 1.1//EN" "http://www.w3.org/Graphics/SVG/1.1/DTD/svg11.dtd">
<svg version="1.1" id="Layer_1" xmlns="http://www.w3.org/2000/svg" xmlns:xlink="http://www.w3.org/1999/xlink" x="0px" y="0px"
	 viewBox="0 0 638.9 758.9" enable-background="new 0 0 638.9 758.9" xml:space="preserve">
<polygon fill="#CCCCCC" points="376.5,320.8 435.4,421.3 371.5,321.9 "/>
<polygon fill="#CCCCCC" points="374.2,324 263.1,291.2 375.3,319.3 "/>
<polygon fill="#CCCCCC" points="373.6,318.9 390,274 378.6,321 "/>
<polygon opacity="0.3" fill="#CCCCCC" points="448.9,562.4 382.5,502.8 450.7,462.3 "/>
<polygon opacity="0.3" fill="#CCCCCC" points="353,482.1 379.7,473 286.7,455 "/>
<polygon opacity="0.3" fill="#CCCCCC" points="261.2,429.9 265.4,456.8 239,445.8 "/>
<polygon opacity="0.7" fill="#CCCCCC" points="122.9,501.5 93.4,543.1 87.1,523.8 "/>
<polygon opacity="0.3" fill="#CCCCCC" points="153.6,212.7 37.3,132.3 173.9,159.1 "/>
<polygon opacity="0.8" fill="#CCCCCC" points="477,514.1 448.9,562.4 524.9,548.1 "/>
<polygon opacity="0.3" fill="#CCCCCC" points="470.2,476.7 477,514.1 507.9,505.5 "/>
<polygon opacity="0.3" fill="#CCCCCC" points="504.3,449.6 509.8,465.2 494.9,452.6 "/>
<polygon opacity="0.7" fill="#CCCCCC" points="510.1,465.4 485.2,492.9 527.2,524.6 "/>
<polygon opacity="0.3" fill="#CCCCCC" points="448.9,562.4 513.2,721.8 524.9,548.1 "/>
<polygon opacity="0.7" fill="#CCCCCC" points="395.7,562.5 516.2,596.9 426,615.3 "/>
<polygon opacity="0.7" fill="#CCCCCC" points="498.6,422.8 504.8,450.7 508.4,410.9 "/>
<polygon opacity="0.3" fill="#CCCCCC" points="508.4,410.2 505.4,449.3 516,441.9 "/>
<polygon opacity="0.3" fill="#CCCCCC" points="382.5,502.8 362.4,470 328.3,463.7 "/>
<polyline opacity="0.3" fill="#CCCCCC" points="511,778.9 487,662.9 579.3,657.9 511,778.9 "/>
<polygon opacity="0.7" fill="#CCCCCC" points="382.5,502.8 328.5,463.8 344.8,523.7 "/>
<polygon opacity="0.3" fill="#CCCCCC" points="477,514.1 516.2,596.9 507.9,505.5 "/>
<polygon fill="#CCCCCC" points="213,612.9 272.7,624.4 264.5,602 "/>
<polygon opacity="0.7" fill="#CCCCCC" points="75.4,73 0,86.5 38.4,41.7 "/>
<polygon opacity="0.7" fill="#CCCCCC" points="558.5,55.2 481.7,0 582.8,89.4 "/>
<polygon opacity="0.3" fill="#CCCCCC" points="275.6,217.7 364.6,202 360.6,208.1 "/>
<polygon opacity="0.3" fill="#CCCCCC" points="393.9,488.4 382.5,502.8 470.2,476.7 "/>
<polygon fill="#CCCCCC" points="262.1,221.2 294.1,213.4 212.3,272.7 "/>
<polygon opacity="0.7" fill="#CCCCCC" points="489.4,276.8 462.4,245.4 432.8,231.1 "/>
<polygon opacity="0.3" fill="#CCCCCC" points="426,615.3 524.9,548.1 507.9,505.5 "/>
<polygon fill="#CCCCCC" points="503.2,352.9 489.4,276.8 516.6,351.3 "/>
<polygon fill="#CCCCCC" points="337,737.5 325.7,747.1 318.4,735.6 "/>
<polygon fill="#CCCCCC" points="383,315.7 369.2,313.5 365.7,326.4 "/>
<polygon fill="#CCCCCC" points="470.2,476.7 382.5,502.8 395.7,562.5 "/>
<polygon opacity="0.3" fill="#CCCCCC" points="393.9,488.4 399.9,540.7 448.9,562.4 "/>
<polygon opacity="0.7" fill="#CCCCCC" points="189,258.1 209.2,239.4 212.3,272.7 "/>
<polygon opacity="0.3" fill="#CCCCCC" points="224.4,152 243.1,126.1 203.5,115.6 "/>
<polygon fill="#CCCCCC" points="508.4,410.2 495.8,405.3 481,444.1 "/>
<polygon opacity="0.7" fill="#CCCCCC" points="240.5,382 240.1,414.1 207.8,360.6 "/>
<polygon fill="#CCCCCC" points="516.6,351.3 495.8,405.3 503.2,352.9 "/>
<polygon fill="#CCCCCC" points="541.7,587.9 550.4,539.1 584.8,628.9 "/>
<polygon fill="#CCCCCC" points="467.8,185.7 467,150 459.4,174.1 "/>
<polygon opacity="0.7" fill="#CCCCCC" points="117.2,105.7 124.2,129.2 75.4,73 "/>
<polygon opacity="0.3" fill="#CCCCCC" points="171.4,332.1 206.6,338.8 199.6,319.9 "/>
<polygon fill="#CCCCCC" points="216.2,267 142.3,231.9 228.3,195.3 "/>
<polygon opacity="0.7" fill="#CCCCCC" points="181,152 231.5,144.9 249.4,178.9 "/>
<polygon opacity="0.7" fill="#CCCCCC" points="433.6,225.1 360.6,208.1 432.8,231.1 "/>
<polygon opacity="0.3" fill="#CCCCCC" points="37.3,132.3 94.3,111.3 0,86.5 "/>
<polygon opacity="0.5" fill="#CCCCCC" points="490.3,698.6 491,758.9 405,703.9 "/>
<polygon opacity="0.3" fill="#CCCCCC" points="267.5,181.5 203.5,115.6 173.9,159.1 "/>
<polygon fill="#CCCCCC" points="602.4,228.5 624.6,220.8 593.4,222.8 "/>
<polygon fill="#CCCCCC" points="481,444.1 450.2,462.3 495.8,405.3 "/>
<polygon opacity="0.7" fill="#CCCCCC" points="206.3,307.7 174.8,311.1 207,339.6 "/>
<polygon opacity="0.3" fill="#CCCCCC" points="231.7,253.2 209.2,239.4 212.3,272.7 "/>
<polygon opacity="0.3" fill="#CCCCCC" points="94.3,111.3 75.4,73 203.5,115.6 "/>
<polygon opacity="0.3" fill="#CCCCCC" points="275.5,418.5 296.4,457.3 258.4,445.7 "/>
<polygon opacity="0.3" fill="#CCCCCC" points="258,445.6 267,467.3 286.7,455 "/>
<polygon fill="#CCCCCC" points="239,445.8 244,463.5 258,445.6 "/>
<polygon opacity="0.3" fill="#CCCCCC" points="153.6,212.7 37.3,132.3 242.3,186 "/>
<polygon opacity="0.6" fill="#CCCCCC" points="328.5,463.8 393.9,488.4 448.5,464.3 "/>
<polygon fill="#CCCCCC" points="300.1,201.6 294,213.9 261.8,221 "/>
<polygon opacity="0.3" fill="#CCCCCC" points="432.8,231.1 461.5,245.1 433.6,225.1 "/>
<polygon opacity="0.3" fill="#CCCCCC" points="153.6,212.7 216.2,267 347.2,201.8 "/>
<polygon opacity="0.3" fill="#CCCCCC" points="489.4,276.8 468,259.7 516.6,351.3 "/>
<polygon opacity="0.6" fill="#CCCCCC" points="352.5,518.7 404.5,704.3 426,615.3 "/>
<polygon opacity="0.7" fill="#CCCCCC" points="433.6,225.1 364.2,202.2 360.6,208.1 "/>
<polygon opacity="0.3" fill="#CCCCCC" points="256.5,201.2 263.1,234.7 242.3,186 "/>
<polygon opacity="0.6" fill="#CCCCCC" points="256.5,201.2 244.7,238.9 209.2,239.4 "/>
<polygon opacity="0.7" fill="#CCCCCC" points="404.5,704.3 468.1,642.1 490.3,698.6 "/>
<polygon opacity="0.7" fill="#CCCCCC" points="275.5,65.2 290,15.9 267.6,28.4 "/>
<polygon opacity="0.7" fill="#CCCCCC" points="488.1,652.1 579.3,647.9 536.2,606.9 "/>
<polygon opacity="0.7" fill="#CCCCCC" points="481.7,0 582.8,89.4 567.6,122.3 "/>
<polygon fill="#CCCCCC" points="244,463.5 265.5,456.7 267,467.3 "/>
<polygon opacity="0.3" fill="#CCCCCC" points="37.3,132.3 94.3,111.3 173.9,159.1 "/>
<polygon fill="#CCCCCC" points="446.1,448.2 450.2,462.3 495.8,405.3 "/>
<polygon opacity="0.3" fill="#CCCCCC" points="485.2,492.9 494.6,452.6 470.2,476.7 "/>
<polygon fill="#CCCCCC" points="385,461.3 379.7,473.3 450.2,462.3 "/>
<polygon fill="#CCCCCC" points="508.4,410.2 495.8,405.3 516.6,351.3 "/>
<polygon fill="#CCCCCC" points="315.7,445.8 296.4,457.3 240.5,382 "/>
<polygon opacity="0.3" fill="#CCCCCC" points="207.8,360.6 212.3,272.7 206.3,307.7 "/>
<polygon opacity="0.3" fill="#CCCCCC" points="243.1,126.1 347.2,201.8 242.3,186 "/>
<polygon opacity="0.7" fill="#CCCCCC" points="212.3,272.7 244.9,238.9 216.1,309.1 "/>
<polygon fill="#CCCCCC" points="446.1,448.2 385,461.3 450.2,462.3 "/>
<polygon opacity="0.7" fill="#CCCCCC" points="347.2,201.8 268.6,181.4 243.1,126.1 "/>
<polygon fill="#CCCCCC" points="379.7,473.3 385,461.3 315.7,445.8 "/>
<polygon opacity="0.3" fill="#CCCCCC" points="504.8,449.3 481,444.1 482.1,452.8 "/>
<polygon opacity="0.3" fill="#CCCCCC" points="240.1,414.1 240.1,414.1 240.5,382 "/>
<polygon fill="#CCCCCC" points="240.5,382 296.4,457.3 240.1,414.1 "/>
<polygon fill="#CCCCCC" points="240.1,414.1 379.7,473.3 296.4,457.3 "/>
<polygon opacity="0.7" fill="#CCCCCC" points="207.8,360.6 216.1,309.1 240.5,382 "/>
<polygon opacity="0.3" fill="#CCCCCC" points="364.6,202 300.1,201.6 294.1,213.4 "/>
<polygon opacity="0.6" fill="#CCCCCC" points="190.8,488.6 288.9,546.4 207.4,531.9 "/>
<polygon fill="#CCCCCC" points="285.1,336.3 298.7,361.5 267.6,360.1 "/>
<polygon fill="#CCCCCC" points="636.3,456 599.2,460.2 596.5,479.9 "/>
<polygon fill="#CCCCCC" points="383,315.7 365.7,326.4 380,329.1 "/>
<polygon fill="#CCCCCC" points="174.8,310.6 199.6,319.9 171.4,332.1 "/>
</svg>
