<?xml version="1.0" encoding="utf-8"?>
<!-- Generator: Adobe Illustrator 18.0.0, SVG Export Plug-In . SVG Version: 6.00 Build 0)  -->
<!DOCTYPE svg PUBLIC "-//W3C//DTD SVG 1.1//EN" "http://www.w3.org/Graphics/SVG/1.1/DTD/svg11.dtd">
<svg version="1.1" id="Layer_1" xmlns="http://www.w3.org/2000/svg" xmlns:xlink="http://www.w3.org/1999/xlink" x="0px" y="0px"
	 viewBox="0 0 638.9 758.9" enable-background="new 0 0 638.9 758.9" xml:space="preserve">
<polygon opacity="0.6" fill="#CCCCCC" points="259.7,320.8 200.8,421.3 264.8,321.9 "/>
<polygon opacity="0.6" fill="#CCCCCC" points="262.1,324 373.2,291.2 260.9,319.3 "/>
<polygon opacity="0.6" fill="#CCCCCC" points="262.7,318.9 246.3,274 257.6,321 "/>
<polygon opacity="0.6" fill="#CCCCCC" points="187.4,562.4 253.8,502.8 185.5,462.3 "/>
<polygon opacity="0.6" fill="#CCCCCC" points="283.2,482.1 256.6,473 349.6,455 "/>
<polygon opacity="0.6" fill="#CCCCCC" points="375.1,429.9 370.8,456.8 397.2,445.8 "/>
<polygon opacity="0.6" fill="#CCCCCC" points="513.4,501.5 542.9,543.1 549.1,523.8 "/>
<polygon opacity="0.6" fill="#CCCCCC" points="482.7,212.7 599,132.3 462.4,159.1 "/>
<polygon opacity="0.6" fill="#CCCCCC" points="159.2,514.1 187.4,562.4 111.4,548.1 "/>
<polygon opacity="0.6" fill="#CCCCCC" points="166,476.7 159.2,514.1 128.4,505.5 "/>
<polygon opacity="0.6" fill="#CCCCCC" points="132,449.6 126.5,465.2 141.4,452.6 "/>
<polygon opacity="0.6" fill="#CCCCCC" points="126.2,465.4 151.1,492.9 109,524.6 "/>
<polygon opacity="0.6" fill="#CCCCCC" points="187.4,562.4 123.1,721.8 111.4,548.1 "/>
<polygon opacity="0.6" fill="#CCCCCC" points="240.5,562.5 120.1,596.9 210.3,615.3 "/>
<polygon opacity="0.6" fill="#CCCCCC" points="137.7,422.8 131.5,450.7 127.9,410.9 "/>
<polygon opacity="0.6" fill="#CCCCCC" points="127.9,410.2 130.9,449.3 120.3,441.9 "/>
<polygon opacity="0.6" fill="#CCCCCC" points="253.8,502.8 273.8,470 308,463.7 "/>
<polyline opacity="0.6" fill="#CCCCCC" points="125.3,778.9 149.3,662.9 57,657.9 125.3,778.9 "/>
<polygon opacity="0.6" fill="#CCCCCC" points="253.8,502.8 307.7,463.8 291.5,523.7 "/>
<polygon opacity="0.6" fill="#CCCCCC" points="159.2,514.1 120.1,596.9 128.4,505.5 "/>
<polygon opacity="0.6" fill="#CCCCCC" points="423.3,612.9 363.5,624.4 371.8,602 "/>
<polygon opacity="0.6" fill="#CCCCCC" points="560.9,73 636.3,86.5 597.9,41.7 "/>
<polygon opacity="0.6" fill="#CCCCCC" points="77.8,55.2 154.5,0 53.5,89.4 "/>
<polygon opacity="0.6" fill="#CCCCCC" points="360.7,217.7 271.7,202 275.6,208.1 "/>
<polygon opacity="0.6" fill="#CCCCCC" points="242.4,488.4 253.8,502.8 166,476.7 "/>
<polygon opacity="0.6" fill="#CCCCCC" points="374.2,221.2 342.2,213.4 423.9,272.7 "/>
<polygon opacity="0.6" fill="#CCCCCC" points="146.8,276.8 173.9,245.4 203.4,231.1 "/>
<polygon opacity="0.6" fill="#CCCCCC" points="210.3,615.3 111.4,548.1 128.4,505.5 "/>
<polygon opacity="0.6" fill="#CCCCCC" points="133.1,352.9 146.8,276.8 119.6,351.3 "/>
<polygon opacity="0.6" fill="#CCCCCC" points="299.3,737.5 310.6,747.1 317.9,735.6 "/>
<polygon opacity="0.6" fill="#CCCCCC" points="253.2,315.7 267.1,313.5 270.5,326.4 "/>
<polygon opacity="0.6" fill="#CCCCCC" points="166,476.7 253.8,502.8 240.5,562.5 "/>
<polygon opacity="0.6" fill="#CCCCCC" points="242.4,488.4 236.4,540.7 187.4,562.4 "/>
<polygon opacity="0.6" fill="#CCCCCC" points="447.3,258.1 427.1,239.4 423.9,272.7 "/>
<polygon opacity="0.6" fill="#CCCCCC" points="411.9,152 393.2,126.1 432.8,115.6 "/>
<polygon opacity="0.6" fill="#CCCCCC" points="127.9,410.2 140.4,405.3 155.2,444.1 "/>
<polygon opacity="0.6" fill="#CCCCCC" points="395.7,382 396.2,414.1 428.4,360.6 "/>
<polygon opacity="0.6" fill="#CCCCCC" points="119.6,351.3 140.4,405.3 133.1,352.9 "/>
<polygon opacity="0.6" fill="#CCCCCC" points="94.6,587.9 85.9,539.1 51.5,628.9 "/>
<polygon opacity="0.6" fill="#CCCCCC" points="168.5,185.7 169.3,150 176.9,174.1 "/>
<polygon opacity="0.6" fill="#CCCCCC" points="519.1,105.7 512.1,129.2 560.9,73 "/>
<polygon opacity="0.6" fill="#CCCCCC" points="464.9,332.1 429.7,338.8 436.7,319.9 "/>
<polygon opacity="0.6" fill="#CCCCCC" points="420,267 493.9,231.9 407.9,195.3 "/>
<polygon opacity="0.6" fill="#CCCCCC" points="455.3,152 404.8,144.9 386.9,178.9 "/>
<polygon opacity="0.6" fill="#CCCCCC" points="202.6,225.1 275.6,208.1 203.4,231.1 "/>
<polygon opacity="0.6" fill="#CCCCCC" points="599,132.3 542,111.3 636.3,86.5 "/>
<polygon opacity="0.6" fill="#CCCCCC" points="146,698.6 145.3,758.9 231.3,703.9 "/>
<polygon opacity="0.6" fill="#CCCCCC" points="368.8,181.5 432.8,115.6 462.4,159.1 "/>
<polygon opacity="0.6" fill="#CCCCCC" points="33.8,228.5 11.7,220.8 42.9,222.8 "/>
<polygon opacity="0.6" fill="#CCCCCC" points="155.2,444.1 186.1,462.3 140.4,405.3 "/>
<polygon opacity="0.6" fill="#CCCCCC" points="429.9,307.7 461.4,311.1 429.2,339.6 "/>
<polygon opacity="0.6" fill="#CCCCCC" points="404.6,253.2 427.1,239.4 423.9,272.7 "/>
<polygon opacity="0.6" fill="#CCCCCC" points="542,111.3 560.9,73 432.8,115.6 "/>
<polygon opacity="0.6" fill="#CCCCCC" points="360.8,418.5 339.9,457.3 377.9,445.7 "/>
<polygon opacity="0.6" fill="#CCCCCC" points="378.3,445.6 369.3,467.3 349.6,455 "/>
<polygon opacity="0.6" fill="#CCCCCC" points="397.2,445.8 392.3,463.5 378.3,445.6 "/>
<polygon opacity="0.6" fill="#CCCCCC" points="482.7,212.7 599,132.3 394,186 "/>
<polygon opacity="0.6" fill="#CCCCCC" points="307.7,463.8 242.4,488.4 187.8,464.3 "/>
<polygon opacity="0.6" fill="#CCCCCC" points="336.2,201.6 342.3,213.9 374.5,221 "/>
<polygon opacity="0.6" fill="#CCCCCC" points="203.4,231.1 174.8,245.1 202.6,225.1 "/>
<polygon opacity="0.6" fill="#CCCCCC" points="482.7,212.7 420,267 289,201.8 "/>
<polygon opacity="0.6" fill="#CCCCCC" points="146.8,276.8 168.2,259.7 119.6,351.3 "/>
<polygon opacity="0.6" fill="#CCCCCC" points="283.8,518.7 231.8,704.3 210.3,615.3 "/>
<polygon opacity="0.6" fill="#CCCCCC" points="202.6,225.1 272.1,202.2 275.6,208.1 "/>
<polygon opacity="0.6" fill="#CCCCCC" points="379.7,201.2 373.2,234.7 394,186 "/>
<polygon opacity="0.6" fill="#CCCCCC" points="379.7,201.2 391.6,238.9 427.1,239.4 "/>
<polygon opacity="0.6" fill="#CCCCCC" points="231.8,704.3 168.2,642.1 146,698.6 "/>
<polygon opacity="0.6" fill="#CCCCCC" points="360.8,65.2 346.3,15.9 368.7,28.4 "/>
<polygon opacity="0.6" fill="#CCCCCC" points="148.2,652.1 57,647.9 100.1,606.9 "/>
<polygon opacity="0.6" fill="#CCCCCC" points="154.5,0 53.5,89.4 68.6,122.3 "/>
<polygon opacity="0.6" fill="#CCCCCC" points="392.3,463.5 370.8,456.7 369.3,467.3 "/>
<polygon opacity="0.6" fill="#CCCCCC" points="599,132.3 542,111.3 462.4,159.1 "/>
<polygon opacity="0.6" fill="#CCCCCC" points="190.1,448.2 186.1,462.3 140.4,405.3 "/>
<polygon opacity="0.6" fill="#CCCCCC" points="151.1,492.9 141.7,452.6 166,476.7 "/>
<polygon opacity="0.6" fill="#CCCCCC" points="251.3,461.3 256.6,473.3 186.1,462.3 "/>
<polygon opacity="0.6" fill="#CCCCCC" points="127.9,410.2 140.4,405.3 119.6,351.3 "/>
<polygon opacity="0.6" fill="#CCCCCC" points="320.6,445.8 339.9,457.3 395.7,382 "/>
<polygon opacity="0.6" fill="#CCCCCC" points="428.4,360.6 423.9,272.7 429.9,307.7 "/>
<polygon opacity="0.6" fill="#CCCCCC" points="393.2,126.1 289,201.8 394,186 "/>
<polygon opacity="0.6" fill="#CCCCCC" points="423.9,272.7 391.4,238.9 420.2,309.1 "/>
<polygon opacity="0.6" fill="#CCCCCC" points="190.1,448.2 251.3,461.3 186.1,462.3 "/>
<polygon opacity="0.6" fill="#CCCCCC" points="289,201.8 367.7,181.4 393.2,126.1 "/>
<polygon opacity="0.6" fill="#CCCCCC" points="256.6,473.3 251.3,461.3 320.6,445.8 "/>
<polygon opacity="0.6" fill="#CCCCCC" points="131.5,449.3 155.2,444.1 154.2,452.8 "/>
<polygon opacity="0.6" fill="#CCCCCC" points="396.2,414.1 396.2,414.1 395.7,382 "/>
<polygon opacity="0.6" fill="#CCCCCC" points="395.7,382 339.9,457.3 396.2,414.1 "/>
<polygon opacity="0.6" fill="#CCCCCC" points="396.2,414.1 256.6,473.3 339.9,457.3 "/>
<polygon opacity="0.6" fill="#CCCCCC" points="428.4,360.6 420.2,309.1 395.7,382 "/>
<polygon opacity="0.6" fill="#CCCCCC" points="271.7,202 336.2,201.6 342.2,213.4 "/>
<polygon opacity="0.6" fill="#CCCCCC" points="445.5,488.6 347.3,546.4 428.9,531.9 "/>
<polygon opacity="0.6" fill="#CCCCCC" points="351.2,336.3 337.6,361.5 368.7,360.1 "/>
<polygon opacity="0.6" fill="#CCCCCC" points="0,456 37,460.2 39.7,479.9 "/>
<polygon opacity="0.6" fill="#CCCCCC" points="253.2,315.7 270.5,326.4 256.2,329.1 "/>
<polygon opacity="0.6" fill="#CCCCCC" points="461.5,310.6 436.7,319.9 464.9,332.1 "/>
</svg>
