<?xml version="1.0" encoding="utf-8"?>
<!-- Generator: Adobe Illustrator 18.0.0, SVG Export Plug-In . SVG Version: 6.00 Build 0)  -->
<!DOCTYPE svg PUBLIC "-//W3C//DTD SVG 1.1//EN" "http://www.w3.org/Graphics/SVG/1.1/DTD/svg11.dtd">
<svg version="1.1" id="Layer_1" xmlns="http://www.w3.org/2000/svg" xmlns:xlink="http://www.w3.org/1999/xlink" x="0px" y="0px"
	 viewBox="0 0 613.6 571.7" enable-background="new 0 0 613.6 571.7" xml:space="preserve">
<polygon fill="#B5B5B5" points="420.9,196.8 427.2,195.1 492.3,386.2 "/>
<polygon fill="#B5B5B5" points="517.4,193.5 463.6,368.2 520.9,197 "/>
<polygon fill="#C6C6C6" points="507.9,188.9 511.4,191.3 457.9,378.9 "/>
<polygon fill="#C6C6C6" points="492.9,389.6 411.7,186.8 407.4,188.4 "/>
<polygon fill="#C6C6C6" points="473.1,167.8 479.4,167.7 470.9,423.4 "/>
<polygon fill="#B5B5B5" points="474.3,391.8 458.5,149.8 455,151.4 "/>
<polygon fill="#E3E3E3" points="270.8,282.5 248.4,430.1 295,430.1 "/>
<polygon fill="#E3E3E3" points="525.7,431.6 562,431.6 550.3,296.9 "/>
<polygon fill="#4C4C4C" points="418.7,346.4 528.8,444 525.5,343.8 "/>
<polygon points="525.5,343.8 510.9,362.5 528.8,444 "/>
<polygon fill="#4C4C4C" points="438.9,306.9 499.2,297.8 497.5,304.9 "/>
<polygon points="471.6,302.3 438.6,301.1 438.9,306.9 "/>
<polygon points="485.2,327.2 499.9,336 489,304.9 "/>
<polygon fill="#0B0B0B" points="453.4,334.2 525.5,343.8 499.9,336 "/>
<polygon points="525.5,343.8 418.7,346.4 453.4,334.2 "/>
<polygon points="453.4,334.2 499.9,336 485.2,327.2 "/>
<polygon fill="#0B0B0B" points="453.7,306.3 485.2,327.2 453.4,334.2 "/>
<polygon points="496.3,414.4 416.5,444 418.7,346.4 "/>
<polygon fill="#363636" points="453.7,306.3 485.2,327.2 489,304.9 "/>
<polygon fill="#FCFCFC" points="259,367 220.4,369.8 275.3,376.4 "/>
<polygon fill="#E3E3E3" points="593.3,431.6 598.9,365.8 613.6,431.6 "/>
<polygon fill="#E3E3E3" points="160.8,393.6 168.6,405 152.2,405 "/>
<polygon fill="#FCFCFC" points="275.3,376.4 218.3,382.8 274.7,421.3 "/>
<polygon fill="#F9F9F9" points="272.7,449.9 238.8,435.4 274.7,421.3 "/>
<polygon fill="#ECECEC" points="326.1,163.8 325.2,154.9 329,160.4 "/>
<polygon fill="#E3E3E3" points="172.6,426.1 148.9,426.1 161.3,406.9 "/>
<polygon fill="#353535" points="318.6,475.1 335.4,399.9 287.9,270.2 "/>
<polygon fill="#DFDFDF" points="325.7,227.6 333.5,163.9 341.5,219.2 "/>
<polygon fill="#F9F9F9" points="260.8,411.8 223.5,386.4 224,455.6 "/>
<polygon fill="#C2C2C2" points="218.7,318.4 223.3,354.4 210.2,344.6 "/>
<polygon fill="#E1E1E1" points="272.7,449.9 224,455.6 238.8,435.4 "/>
<polygon fill="#797979" points="320.2,278.7 335.4,399.9 370.8,277.6 "/>
<polygon fill="#E3E3E3" points="149.8,416.6 161.3,398.6 171.7,416.6 "/>
<polygon fill="#6A6A6A" points="320.2,278.7 287.9,270.2 363.5,251.9 "/>
<polygon fill="#626262" points="318.6,475.1 303.7,375.7 286,470.2 "/>
<polygon fill="#474747" points="320.2,278.7 335.4,399.9 287.9,270.2 "/>
<polygon fill="#E1E1E1" points="175,447.2 183.5,427.8 224,455.6 "/>
<polygon fill="#DADADA" points="551.3,299.8 565.8,431.6 553.9,431.6 "/>
<polygon fill="#8D8D8D" points="363.5,251.9 410.7,267 370.8,277.6 "/>
<polygon fill="#F9F9F9" points="174.9,377 220.4,369.8 183.3,364 "/>
<polygon fill="#FCFCFC" points="183.5,427.8 206.6,381.1 223.5,386.4 "/>
<polygon fill="#131313" points="41.1,101 39.4,119 30.5,128.2 "/>
<polygon fill="#E3E3E3" points="108.4,431.6 123.1,296.8 65,431.6 "/>
<polygon fill="#FCFCFC" points="223.5,386.4 224,455.6 183.5,427.8 "/>
<polygon fill="#7E7E7E" points="379.2,478.7 318.6,475.1 335.4,399.9 "/>
<polygon fill="#F5F5F5" points="175,447.2 174.9,377 206.6,381.1 "/>
<polygon fill="#DFDFDF" points="366.8,221.5 333.5,163.9 341.5,219.2 "/>
<polygon fill="#F4F4F4" points="238.8,435.4 274.7,421.3 260.8,411.8 "/>
<polygon fill="#0B0B0B" points="416.5,444 528.8,444 494.6,412.9 "/>
<polygon points="350.5,263.6 349.4,245 345.6,244.4 "/>
<polygon points="286,470.2 303.7,375.7 292,375 "/>
<polygon fill="#2A2A2A" points="412,465.2 370.8,277.6 335.4,399.9 "/>
<polygon fill="#DADADA" points="573.5,440.1 587.9,440.1 580.3,413.5 "/>
<polygon fill="#545454" points="291.9,374.9 287.9,270.2 303.7,375.7 "/>
<polygon fill="#FFFFFF" points="220.4,369.8 174.9,377 218.3,382.8 "/>
<polygon fill="#B2B2B2" points="370.8,277.6 363.5,251.9 320.2,278.7 "/>
<polygon fill="#F9F9F9" points="259,367 220.4,369.8 233.5,359.7 "/>
<polygon fill="#E3E3E3" points="245.9,571.7 205,460.7 211.7,571.7 "/>
<polygon fill="#F9F9F9" points="218.3,382.8 275.3,376.4 220.4,369.8 "/>
<polygon fill="#ECECEC" points="218.7,318.4 220.3,297.1 210.2,344.6 "/>
<polygon fill="#DFDFDF" points="335,153.3 336.6,144 332.4,149 "/>
<polygon fill="#626262" points="412,465.2 335.4,399.9 379.2,478.7 "/>
<polygon fill="#616161" points="370.8,277.6 410.7,267 412,465.2 "/>
<polygon fill="#DFDFDF" points="341.5,219.2 348.6,249.1 366.8,221.5 "/>
<polygon fill="#FCFCFC" points="218.3,382.8 206.6,381.1 223.5,386.4 "/>
<polygon fill="#D6D6D6" points="220.3,297.1 240.6,339.7 218.7,318.4 "/>
<polygon fill="#727272" points="28.1,70 41.1,101 61.8,60 "/>
<polygon fill="#6C6C6C" points="0,17 51.5,63 61.8,60 "/>
<polygon fill="#595959" points="16.4,0 37,42.7 61.8,60 "/>
<polygon points="28.1,70 0,17 51.5,63 "/>
<polygon fill="#F4F4F4" points="183.3,364 233.5,359.7 220.4,369.8 "/>
<polygon fill="#E3E3E3" points="108,524 127.9,456 168.4,524 "/>
<polygon fill="#131313" points="18.4,29.6 37,42.7 16.4,0 "/>
<polygon fill="#0B0B0B" points="487,344.7 510.9,363.1 525.5,343.8 "/>
<polygon fill="#747474" points="79.1,56.3 95.6,69.7 82,64.8 "/>
<polygon fill="#6C6C6C" points="41.1,101 53.7,127.6 39.4,119 "/>
<polygon points="24.8,114.1 13.6,117.6 28.1,70 "/>
<polygon fill="#191919" points="82,64.8 95.6,69.7 75,80.3 "/>
<polygon fill="#6C6C6C" points="82,64.8 61.8,60 79.1,56.3 "/>
<polygon fill="#636363" points="92.8,71.1 115.5,90.4 88.5,72.9 "/>
<polygon points="84.1,75.3 115.5,90.4 88.5,72.9 "/>
<polygon fill="#131313" points="41.1,101 53.7,127.6 52.7,98.3 "/>
<polygon fill="#131313" points="52.7,98.3 75,80.3 61.8,60 "/>
<polygon points="52.7,98.3 61.8,60 41.1,101 "/>
<polygon fill="#3F3F3F" points="61.8,60 82,64.8 75,80.3 "/>
<polygon fill="#6C6C6C" points="24.8,114.1 28.1,70 30.5,128.2 "/>
<polygon points="30.5,128.2 41.1,101 28.1,70 "/>
<polygon fill="#6C6C6C" points="13.6,117.6 17.4,88.9 28.1,70 "/>
<polygon fill="#C2C2C2" points="348.6,249.1 325.7,227.6 341.5,219.2 "/>
<polygon points="220,371.8 223.4,369 224,342.5 "/>
<polygon fill="#DFDFDF" points="218.7,318.4 240.6,339.7 223.1,352.4 "/>
<polygon fill="#E3E3E3" points="451.8,426.8 417.8,520.5 469.4,520.5 "/>
</svg>
