<?xml version="1.0" encoding="utf-8"?>
<!-- Generator: Adobe Illustrator 18.0.0, SVG Export Plug-In . SVG Version: 6.00 Build 0)  -->
<!DOCTYPE svg PUBLIC "-//W3C//DTD SVG 1.1//EN" "http://www.w3.org/Graphics/SVG/1.1/DTD/svg11.dtd">
<svg version="1.1" id="Layer_1" xmlns="http://www.w3.org/2000/svg" xmlns:xlink="http://www.w3.org/1999/xlink" x="0px" y="0px"
	 viewBox="0 0 613.6 571.7" enable-background="new 0 0 613.6 571.7" xml:space="preserve">
<polygon fill="#B5B5B5" points="192.7,196.8 186.4,195.1 121.2,386.2 "/>
<polygon fill="#B5B5B5" points="96.2,193.5 150,368.2 92.6,197 "/>
<polygon fill="#C6C6C6" points="105.7,188.9 102.1,191.3 155.6,378.9 "/>
<polygon fill="#C6C6C6" points="120.7,389.6 201.9,186.8 206.2,188.4 "/>
<polygon fill="#C6C6C6" points="140.5,167.8 134.2,167.7 142.7,423.4 "/>
<polygon fill="#B5B5B5" points="139.3,391.8 155,149.8 158.5,151.4 "/>
<polygon fill="#E3E3E3" points="342.8,282.5 365.1,430.1 318.6,430.1 "/>
<polygon fill="#E3E3E3" points="87.9,431.6 51.6,431.6 63.3,296.9 "/>
<polygon fill="#4C4C4C" points="194.8,346.4 84.8,444 88,343.8 "/>
<polygon points="88,343.8 102.6,362.5 84.8,444 "/>
<polygon fill="#4C4C4C" points="174.7,306.9 114.4,297.8 116.1,304.9 "/>
<polygon points="142,302.3 175,301.1 174.7,306.9 "/>
<polygon points="128.4,327.2 113.7,336 124.6,304.9 "/>
<polygon fill="#0B0B0B" points="160.2,334.2 88,343.8 113.7,336 "/>
<polygon points="88,343.8 194.8,346.4 160.2,334.2 "/>
<polygon points="160.2,334.2 113.7,336 128.4,327.2 "/>
<polygon fill="#0B0B0B" points="159.9,306.3 128.4,327.2 160.2,334.2 "/>
<polygon points="117.3,414.4 197.1,444 194.8,346.4 "/>
<polygon fill="#363636" points="159.9,306.3 128.4,327.2 124.6,304.9 "/>
<polygon fill="#FCFCFC" points="354.6,367 393.2,369.8 338.3,376.4 "/>
<polygon fill="#E3E3E3" points="20.3,431.6 14.7,365.8 0,431.6 "/>
<polygon fill="#E3E3E3" points="452.8,393.6 445,405 461.3,405 "/>
<polygon fill="#FCFCFC" points="338.3,376.4 395.3,382.8 338.9,421.3 "/>
<polygon fill="#F9F9F9" points="340.9,449.9 374.8,435.4 338.9,421.3 "/>
<polygon fill="#ECECEC" points="287.5,163.8 288.4,154.9 284.6,160.4 "/>
<polygon fill="#E3E3E3" points="441,426.1 464.7,426.1 452.2,406.9 "/>
<polygon fill="#353535" points="295,475.1 278.2,399.9 325.7,270.2 "/>
<polygon fill="#DFDFDF" points="287.9,227.6 280.1,163.9 272.1,219.2 "/>
<polygon fill="#F9F9F9" points="352.7,411.8 390.1,386.4 389.6,455.6 "/>
<polygon fill="#C2C2C2" points="394.9,318.4 390.3,354.4 403.4,344.6 "/>
<polygon fill="#E1E1E1" points="340.9,449.9 389.6,455.6 374.8,435.4 "/>
<polygon fill="#797979" points="293.3,278.7 278.2,399.9 242.8,277.6 "/>
<polygon fill="#E3E3E3" points="463.8,416.6 452.3,398.6 441.9,416.6 "/>
<polygon fill="#6A6A6A" points="293.3,278.7 325.7,270.2 250,251.9 "/>
<polygon fill="#626262" points="295,475.1 309.8,375.7 327.6,470.2 "/>
<polygon fill="#474747" points="293.3,278.7 278.2,399.9 325.7,270.2 "/>
<polygon fill="#E1E1E1" points="438.5,447.2 430.1,427.8 389.6,455.6 "/>
<polygon fill="#DADADA" points="62.3,299.8 47.8,431.6 59.7,431.6 "/>
<polygon fill="#8D8D8D" points="250,251.9 202.9,267 242.8,277.6 "/>
<polygon fill="#F9F9F9" points="438.6,377 393.2,369.8 430.3,364 "/>
<polygon fill="#FCFCFC" points="430.1,427.8 407,381.1 390.1,386.4 "/>
<polygon fill="#131313" points="572.5,101 574.2,119 583,128.2 "/>
<polygon fill="#E3E3E3" points="505.2,431.6 490.5,296.8 548.6,431.6 "/>
<polygon fill="#FCFCFC" points="390.1,386.4 389.6,455.6 430.1,427.8 "/>
<polygon fill="#7E7E7E" points="234.4,478.7 295,475.1 278.2,399.9 "/>
<polygon fill="#F5F5F5" points="438.5,447.2 438.6,377 407,381.1 "/>
<polygon fill="#DFDFDF" points="246.7,221.5 280.1,163.9 272.1,219.2 "/>
<polygon fill="#F4F4F4" points="374.8,435.4 338.9,421.3 352.7,411.8 "/>
<polygon fill="#0B0B0B" points="197.1,444 84.8,444 119,412.9 "/>
<polygon points="263.1,263.6 264.2,245 267.9,244.4 "/>
<polygon points="327.6,470.2 309.8,375.7 321.6,375 "/>
<polygon fill="#2A2A2A" points="201.6,465.2 242.8,277.6 278.2,399.9 "/>
<polygon fill="#DADADA" points="40.1,440.1 25.7,440.1 33.3,413.5 "/>
<polygon fill="#545454" points="321.7,374.9 325.7,270.2 309.8,375.7 "/>
<polygon fill="#FFFFFF" points="393.2,369.8 438.6,377 395.3,382.8 "/>
<polygon fill="#B2B2B2" points="242.8,277.6 250,251.9 293.3,278.7 "/>
<polygon fill="#F9F9F9" points="354.6,367 393.2,369.8 380,359.7 "/>
<polygon fill="#E3E3E3" points="367.7,571.7 408.6,460.7 401.9,571.7 "/>
<polygon fill="#F9F9F9" points="395.3,382.8 338.3,376.4 393.2,369.8 "/>
<polygon fill="#ECECEC" points="394.9,318.4 393.3,297.1 403.4,344.6 "/>
<polygon fill="#DFDFDF" points="278.6,153.3 276.9,144 281.2,149 "/>
<polygon fill="#626262" points="201.6,465.2 278.2,399.9 234.4,478.7 "/>
<polygon fill="#616161" points="242.8,277.6 202.9,267 201.6,465.2 "/>
<polygon fill="#DFDFDF" points="272.1,219.2 265,249.1 246.7,221.5 "/>
<polygon fill="#FCFCFC" points="395.3,382.8 407,381.1 390.1,386.4 "/>
<polygon fill="#D6D6D6" points="393.3,297.1 373,339.7 394.9,318.4 "/>
<polygon fill="#727272" points="585.5,70 572.5,101 551.8,60 "/>
<polygon fill="#6C6C6C" points="613.6,17 562.1,63 551.8,60 "/>
<polygon fill="#595959" points="597.1,0 576.5,42.7 551.8,60 "/>
<polygon points="585.5,70 613.6,17 562.1,63 "/>
<polygon fill="#F4F4F4" points="430.3,364 380,359.7 393.2,369.8 "/>
<polygon fill="#E3E3E3" points="505.5,524 485.7,456 445.2,524 "/>
<polygon fill="#131313" points="595.2,29.6 576.5,42.7 597.1,0 "/>
<polygon fill="#0B0B0B" points="126.5,344.7 102.6,363.1 88,343.8 "/>
<polygon fill="#747474" points="534.5,56.3 517.9,69.7 531.6,64.8 "/>
<polygon fill="#6C6C6C" points="572.5,101 559.9,127.6 574.2,119 "/>
<polygon points="588.7,114.1 600,117.6 585.5,70 "/>
<polygon fill="#191919" points="531.6,64.8 517.9,69.7 538.6,80.3 "/>
<polygon fill="#6C6C6C" points="531.6,64.8 551.8,60 534.5,56.3 "/>
<polygon fill="#636363" points="520.7,71.1 498.1,90.4 525,72.9 "/>
<polygon points="529.5,75.3 498.1,90.4 525,72.9 "/>
<polygon fill="#131313" points="572.5,101 559.9,127.6 560.9,98.3 "/>
<polygon fill="#131313" points="560.9,98.3 538.6,80.3 551.8,60 "/>
<polygon points="560.9,98.3 551.8,60 572.5,101 "/>
<polygon fill="#3F3F3F" points="551.8,60 531.6,64.8 538.6,80.3 "/>
<polygon fill="#6C6C6C" points="588.7,114.1 585.5,70 583,128.2 "/>
<polygon points="583,128.2 572.5,101 585.5,70 "/>
<polygon fill="#6C6C6C" points="600,117.6 596.2,88.9 585.5,70 "/>
<polygon fill="#C2C2C2" points="265,249.1 287.9,227.6 272.1,219.2 "/>
<polygon points="393.6,371.8 390.2,369 389.6,342.5 "/>
<polygon fill="#DFDFDF" points="394.9,318.4 373,339.7 390.5,352.4 "/>
<polygon fill="#E3E3E3" points="161.8,426.8 195.8,520.5 144.2,520.5 "/>
</svg>
