<?xml version="1.0" encoding="utf-8"?>
<!-- Generator: Adobe Illustrator 18.0.0, SVG Export Plug-In . SVG Version: 6.00 Build 0)  -->
<!DOCTYPE svg PUBLIC "-//W3C//DTD SVG 1.1//EN" "http://www.w3.org/Graphics/SVG/1.1/DTD/svg11.dtd">
<svg version="1.1" id="Layer_1" xmlns="http://www.w3.org/2000/svg" xmlns:xlink="http://www.w3.org/1999/xlink" x="0px" y="0px"
	 viewBox="0 0 851.7 1043.8" enable-background="new 0 0 851.7 1043.8" xml:space="preserve">
<polygon enable-background="new    " points="404,555.5 459.3,469.6 512.6,525.8 "/>
<polygon enable-background="new    " points="351.5,469.6 408.5,547.5 459.3,469.6 "/>
<polygon points="303.1,525.5 351.5,469.6 415.3,554.9 "/>
<polygon enable-background="new    " points="478,600 468.8,736.4 522.5,655.1 "/>
<polygon points="440,782.3 185.3,768.7 173.8,903 "/>
<g>
	<polygon points="440,782.3 649.1,717.4 468.8,736.4 	"/>
</g>
<polygon fill="#464646" enable-background="new    " points="468.8,736.4 649.1,717.4 690.6,603.8 "/>
<polygon points="337.3,601.1 303.1,525.5 280,655.4 "/>
<polygon points="303.1,525.5 378.4,528.2 337.3,601.1 "/>
<polygon enable-background="new    " points="303.1,525.5 114.5,498.6 280,655.4 "/>
<polygon enable-background="new    " points="98.1,596.7 114.5,498.6 280,655.4 "/>
<polygon enable-background="new    " points="337.3,601.1 347.9,737 280,655.4 "/>
<polygon enable-background="new    " points="347.9,737 408.6,657.6 468.8,736.4 "/>
<polygon enable-background="new    " points="522.5,655.1 697.5,504.4 690.6,603.8 "/>
<polygon fill="#2B2B2B" enable-background="new    " points="690.6,603.8 468.8,736.4 522.5,655.1 "/>
<g>
	<polygon points="700.2,914.9 173.8,903 440,782.3 	"/>
</g>
<g enable-background="new    ">
	<polygon points="347.9,737 337.3,601.1 385.9,686.9 	"/>
</g>
<polygon points="700.2,914.9 440,782.3 648.2,771.8 "/>
<polygon fill="#2A2A2A" points="56.5,709.1 185.3,768.7 98.1,596.7 "/>
<polygon fill="#101010" points="347.9,737 185.3,768.7 98.1,596.7 "/>
<g enable-background="new    ">
	<polygon fill="#363636" points="341.8,289 410.9,361 252.8,396.6 	"/>
</g>
<g>
	<polygon fill="#2E2E2E" points="98.1,596.7 280,655.4 347.9,737 	"/>
</g>
<polygon fill="#0B0B0B" enable-background="new    " points="334,151.3 238.1,33.7 152.7,149.2 "/>
<g>
	<polygon fill="#4D4D4D" points="116.2,275.6 252.8,396.6 128.1,412.7 	"/>
</g>
<polygon fill="#737373" enable-background="new    " points="690.6,603.8 837.4,566 649.1,717.4 "/>
<polygon enable-background="new    " points="347.9,737 440,782.3 185.3,768.7 "/>
<polygon fill="#2C2C2C" enable-background="new    " points="114.5,498.6 230.1,451.7 303.1,525.5 "/>
<polygon enable-background="new    " points="56.5,709.1 185.3,768.7 173.8,903 "/>
<polygon enable-background="new    " points="470.4,152.2 400.8,162.8 449.2,107.6 "/>
<polygon enable-background="new    " points="470.4,152.2 529.3,87.1 449.2,107.6 "/>
<polygon fill="#272727" enable-background="new    " points="127.4,412 114.5,498.6 230.1,451.7 "/>
<polygon enable-background="new    " points="649.1,717.4 440,782.3 648.2,771.8 "/>
<polygon enable-background="new    " points="440,782.3 347.9,737 468.8,736.4 "/>
<g enable-background="new    ">
	<polygon points="470.4,152.2 626.6,154.6 543.6,255.8 	"/>
</g>
<polygon enable-background="new    " points="400.8,162.8 449.2,107.6 383.2,75.3 "/>
<polygon fill="#353535" enable-background="new    " points="128.1,412.7 84.9,380.1 116.2,275.6 "/>
<polygon enable-background="new    " points="383.2,75.3 334,151.3 238.1,33.7 "/>
<polygon enable-background="new    " points="383.2,75.3 334,151.3 400.8,162.8 "/>
<polygon enable-background="new    " points="458.7,291.8 470.4,152.2 400.8,162.8 "/>
<polygon fill="#444444" enable-background="new    " points="230.1,451.7 252.8,396.6 128.1,412.7 "/>
<polygon fill="#1C1C1C" enable-background="new    " points="334,151.3 152.7,149.2 243,254.2 "/>
<polygon fill="#252525" enable-background="new    " points="116.2,275.6 243,254.2 152.7,149.2 "/>
<polygon fill="#0E0E0E" enable-background="new    " points="334,151.3 341.8,289 243,254.2 "/>
<polygon enable-background="new    " points="529.3,87.1 627.8,154.4 535.8,153.6 "/>
<polygon enable-background="new    " points="470.4,152.2 535.8,153.6 529.3,87.1 "/>
<polygon fill="#5B5B5B" enable-background="new    " points="116.2,275.6 243,254.2 252.8,396.6 "/>
<polygon enable-background="new    " points="152.7,149.2 238.1,33.7 86.4,0 "/>
<polygon enable-background="new    " points="543.6,255.8 470.4,152.2 458.7,291.8 "/>
<polygon fill="#2E2E2E" enable-background="new    " points="252.8,396.6 341.8,289 243,254.2 "/>
<polygon enable-background="new    " points="410.9,361 458.7,291.8 605.4,394.5 "/>
<polygon points="476.4,926.3 166.3,906.9 183.5,1030.6 "/>
<polygon enable-background="new    " points="400.8,162.8 458.7,291.8 341.8,289 "/>
<polygon fill="#0B0B0B" enable-background="new    " points="458.7,291.8 341.8,289 410.9,361 "/>
<polygon fill="#696969" enable-background="new    " points="351.5,469.6 230.1,451.7 303.1,525.5 "/>
<polygon enable-background="new    " points="341.8,289 334,151.3 400.8,162.8 "/>
<polygon enable-background="new    " points="543.6,255.8 626.6,154.6 709,342.3 "/>
<polygon enable-background="new    " points="478,600 512.6,525.8 522.5,655.1 "/>
<polygon enable-background="new    " points="543.6,255.8 458.7,291.8 605.4,394.5 "/>
<polygon enable-background="new    " points="626.6,154.6 748,231.7 709,342.3 "/>
<polygon fill="#2A2A2A" points="459.3,469.6 351.5,469.6 410.9,361 "/>
<polygon fill="#898989" enable-background="new    " points="351.5,469.6 230.1,451.7 252.8,396.6 "/>
<polygon enable-background="new    " points="449.2,107.6 474.8,73.6 383.2,75.3 "/>
<polygon points="697.5,504.4 512.6,525.8 522.5,655.1 "/>
<polygon fill="#1F1F1F" points="252.8,396.6 410.9,361 351.5,469.6 "/>
<polygon enable-background="new    " points="438.1,541.2 512.6,525.8 478,600 "/>
<polygon fill="#101010" points="605.4,394.5 697.5,504.4 459.3,469.6 "/>
<polygon enable-background="new    " points="648.2,771.8 649.1,717.4 817.3,737.4 "/>
<polygon points="820.5,488.3 697.5,504.4 690.6,603.8 "/>
<polygon enable-background="new    " points="820.5,488.3 697.5,504.4 709,342.3 "/>
<polygon points="20.9,865.5 117.3,911.5 0,717.6 "/>
<polygon enable-background="new    " points="213.9,1043.8 658,1014.1 499.8,927.8 "/>
<polygon enable-background="new    " points="712.9,925.5 658,1014.1 499.8,927.8 "/>
<polygon points="820.5,488.3 690.6,603.8 837.4,566 "/>
<polygon enable-background="new    " points="752.4,634 817.3,737.4 649.1,717.4 "/>
<polygon enable-background="new    " points="449.2,107.6 529.3,87.1 474.8,73.6 "/>
<polygon enable-background="new    " points="851.7,749.1 698.5,828.6 787.8,951.9 "/>
<polygon points="459.3,469.6 410.9,361 605.4,394.5 "/>
<polygon points="408.5,538.1 370.4,600.9 443.2,600.9 "/>
<polygon enable-background="new    " points="429.8,686.9 478,600 468.8,736.4 "/>
<polygon fill="#2E2E2E" points="459.3,469.6 512.6,525.8 697.5,504.4 "/>
<polygon points="447.2,600.9 406.8,674.1 376.6,600.9 "/>
<polygon enable-background="new    " points="697.5,504.4 605.4,394.5 709,342.3 "/>
<polygon fill="#B8B8B8" points="439.3,600.1 408.6,657.6 478,600 "/>
<polygon enable-background="new    " points="605.4,394.5 543.6,255.8 709,342.3 "/>
<polygon fill="#A0A0A0" points="478,600 439.3,600.1 408,548 "/>
<polygon fill="#B8B8B8" points="386,515.6 408,548 337.3,601.1 "/>
<g>
	<polygon fill="#A0A0A0" points="478,600 429.8,686.9 408.6,657.6 	"/>
</g>
<polygon fill="#818181" points="408,548 429.8,515.6 386,515.6 "/>
<polygon fill="#B8B8B8" points="429.8,515.6 408,548 478,600 "/>
<polygon fill="#A0A0A0" points="408,548 375.8,600.1 337.3,601.1 "/>
<polygon fill="#B8B8B8" points="375.8,600.1 337.3,601.1 408.6,657.6 "/>
<polygon fill="#818181" points="385.9,686.9 408.6,657.6 429.8,686.9 "/>
<polygon fill="#A0A0A0" points="337.3,601.1 385.9,686.9 408.6,657.6 "/>
<g id="test-illu02_1_">
</g>
<polygon fill="#A0A0A0" points="247.6,582.2 105.4,557.4 251.4,585.3 "/>
<polygon fill="#B8B8B8" points="247.6,582.2 105.4,546 105.4,557.4 "/>
<polygon fill="#B8B8B8" points="829.4,532.3 543.4,584.3 828.5,523.3 "/>
<polygon fill="#A0A0A0" points="543.1,584 829.1,532 539.1,587.7 "/>
</svg>
