<?xml version="1.0" encoding="utf-8"?>
<!-- Generator: Adobe Illustrator 18.0.0, SVG Export Plug-In . SVG Version: 6.00 Build 0)  -->
<!DOCTYPE svg PUBLIC "-//W3C//DTD SVG 1.1//EN" "http://www.w3.org/Graphics/SVG/1.1/DTD/svg11.dtd">
<svg version="1.1" id="Layer_1" xmlns="http://www.w3.org/2000/svg" xmlns:xlink="http://www.w3.org/1999/xlink" x="0px" y="0px"
	 viewBox="0 0 851.7 1043.8" enable-background="new 0 0 851.7 1043.8" xml:space="preserve">
<polygon enable-background="new    " points="447.8,555.5 392.5,469.6 339.1,525.8 "/>
<polygon enable-background="new    " points="500.2,469.6 443.2,547.5 392.5,469.6 "/>
<polygon points="548.6,525.5 500.2,469.6 436.4,554.9 "/>
<polygon enable-background="new    " points="373.7,600 382.9,736.4 329.3,655.1 "/>
<polygon points="411.7,782.3 666.4,768.7 677.9,903 "/>
<g>
	<polygon points="411.7,782.3 202.6,717.4 382.9,736.4 	"/>
</g>
<polygon fill="#464646" enable-background="new    " points="382.9,736.4 202.6,717.4 161.1,603.8 "/>
<polygon points="514.4,601.1 548.6,525.5 571.7,655.4 "/>
<polygon points="548.6,525.5 473.4,528.2 514.4,601.1 "/>
<polygon enable-background="new    " points="548.6,525.5 737.2,498.6 571.7,655.4 "/>
<polygon enable-background="new    " points="753.6,596.7 737.2,498.6 571.7,655.4 "/>
<polygon enable-background="new    " points="514.4,601.1 503.8,737 571.7,655.4 "/>
<polygon enable-background="new    " points="503.8,737 443.1,657.6 382.9,736.4 "/>
<polygon enable-background="new    " points="329.3,655.1 154.2,504.4 161.1,603.8 "/>
<polygon fill="#2B2B2B" enable-background="new    " points="161.1,603.8 382.9,736.4 329.3,655.1 "/>
<g>
	<polygon points="151.5,914.9 677.9,903 411.7,782.3 	"/>
</g>
<g enable-background="new    ">
	<polygon points="503.8,737 514.4,601.1 465.8,686.9 	"/>
</g>
<polygon points="151.5,914.9 411.7,782.3 203.5,771.8 "/>
<polygon fill="#2A2A2A" points="795.2,709.1 666.4,768.7 753.6,596.7 "/>
<polygon fill="#101010" points="503.8,737 666.4,768.7 753.6,596.7 "/>
<g enable-background="new    ">
	<polygon fill="#363636" points="510,289 440.8,361 598.9,396.6 	"/>
</g>
<g>
	<polygon fill="#2E2E2E" points="753.6,596.7 571.7,655.4 503.8,737 	"/>
</g>
<polygon fill="#0B0B0B" enable-background="new    " points="517.7,151.3 613.6,33.7 699,149.2 "/>
<g>
	<polygon fill="#4D4D4D" points="735.5,275.6 598.9,396.6 723.6,412.7 	"/>
</g>
<polygon fill="#737373" enable-background="new    " points="161.1,603.8 14.3,566 202.6,717.4 "/>
<polygon enable-background="new    " points="503.8,737 411.7,782.3 666.4,768.7 "/>
<polygon fill="#2C2C2C" enable-background="new    " points="737.2,498.6 621.6,451.7 548.6,525.5 "/>
<polygon enable-background="new    " points="795.2,709.1 666.4,768.7 677.9,903 "/>
<polygon enable-background="new    " points="381.4,152.2 450.9,162.8 402.5,107.6 "/>
<polygon enable-background="new    " points="381.4,152.2 322.4,87.1 402.5,107.6 "/>
<polygon fill="#272727" enable-background="new    " points="724.3,412 737.2,498.6 621.6,451.7 "/>
<polygon enable-background="new    " points="202.6,717.4 411.7,782.3 203.5,771.8 "/>
<polygon enable-background="new    " points="411.7,782.3 503.8,737 382.9,736.4 "/>
<g enable-background="new    ">
	<polygon points="381.4,152.2 225.1,154.6 308.1,255.8 	"/>
</g>
<polygon enable-background="new    " points="450.9,162.8 402.5,107.6 468.5,75.3 "/>
<polygon fill="#353535" enable-background="new    " points="723.6,412.7 766.8,380.1 735.5,275.6 "/>
<polygon enable-background="new    " points="468.5,75.3 517.7,151.3 613.6,33.7 "/>
<polygon enable-background="new    " points="468.5,75.3 517.7,151.3 450.9,162.8 "/>
<polygon enable-background="new    " points="393,291.8 381.4,152.2 450.9,162.8 "/>
<polygon fill="#444444" enable-background="new    " points="621.6,451.7 598.9,396.6 723.6,412.7 "/>
<polygon fill="#1C1C1C" enable-background="new    " points="517.7,151.3 699,149.2 608.7,254.2 "/>
<polygon fill="#252525" enable-background="new    " points="735.5,275.6 608.7,254.2 699,149.2 "/>
<polygon fill="#0E0E0E" enable-background="new    " points="517.7,151.3 510,289 608.7,254.2 "/>
<polygon enable-background="new    " points="322.4,87.1 223.9,154.4 315.9,153.6 "/>
<polygon enable-background="new    " points="381.4,152.2 315.9,153.6 322.4,87.1 "/>
<polygon fill="#5B5B5B" enable-background="new    " points="735.5,275.6 608.7,254.2 598.9,396.6 "/>
<polygon enable-background="new    " points="699,149.2 613.6,33.7 765.3,0 "/>
<polygon enable-background="new    " points="308.1,255.8 381.4,152.2 393,291.8 "/>
<polygon fill="#2E2E2E" enable-background="new    " points="598.9,396.6 510,289 608.7,254.2 "/>
<polygon enable-background="new    " points="440.8,361 393,291.8 246.3,394.5 "/>
<polygon points="375.3,926.3 685.4,906.9 668.2,1030.6 "/>
<polygon enable-background="new    " points="450.9,162.8 393,291.8 510,289 "/>
<polygon fill="#0B0B0B" enable-background="new    " points="393,291.8 510,289 440.8,361 "/>
<polygon fill="#696969" enable-background="new    " points="500.2,469.6 621.6,451.7 548.6,525.5 "/>
<polygon enable-background="new    " points="510,289 517.7,151.3 450.9,162.8 "/>
<polygon enable-background="new    " points="308.1,255.8 225.1,154.6 142.7,342.3 "/>
<polygon enable-background="new    " points="373.7,600 339.1,525.8 329.3,655.1 "/>
<polygon enable-background="new    " points="308.1,255.8 393,291.8 246.3,394.5 "/>
<polygon enable-background="new    " points="225.1,154.6 103.7,231.7 142.7,342.3 "/>
<polygon fill="#2A2A2A" points="392.5,469.6 500.2,469.6 440.8,361 "/>
<polygon fill="#898989" enable-background="new    " points="500.2,469.6 621.6,451.7 598.9,396.6 "/>
<polygon enable-background="new    " points="402.5,107.6 376.9,73.6 468.5,75.3 "/>
<polygon points="154.2,504.4 339.1,525.8 329.3,655.1 "/>
<polygon fill="#1F1F1F" points="598.9,396.6 440.8,361 500.2,469.6 "/>
<polygon enable-background="new    " points="413.6,541.2 339.1,525.8 373.7,600 "/>
<polygon fill="#101010" points="246.3,394.5 154.2,504.4 392.5,469.6 "/>
<polygon enable-background="new    " points="203.5,771.8 202.6,717.4 34.4,737.4 "/>
<polygon points="31.2,488.3 154.2,504.4 161.1,603.8 "/>
<polygon enable-background="new    " points="31.2,488.3 154.2,504.4 142.7,342.3 "/>
<polygon points="830.8,865.5 734.4,911.5 851.7,717.6 "/>
<polygon enable-background="new    " points="637.8,1043.8 193.7,1014.1 351.9,927.8 "/>
<polygon enable-background="new    " points="138.8,925.5 193.7,1014.1 351.9,927.8 "/>
<polygon points="31.2,488.3 161.1,603.8 14.3,566 "/>
<polygon enable-background="new    " points="99.3,634 34.4,737.4 202.6,717.4 "/>
<polygon enable-background="new    " points="402.5,107.6 322.4,87.1 376.9,73.6 "/>
<polygon enable-background="new    " points="0,749.1 153.2,828.6 63.9,951.9 "/>
<polygon points="392.5,469.6 440.8,361 246.3,394.5 "/>
<polygon points="443.2,538.1 481.3,600.9 408.5,600.9 "/>
<polygon enable-background="new    " points="421.9,686.9 373.7,600 382.9,736.4 "/>
<polygon fill="#2E2E2E" points="392.5,469.6 339.1,525.8 154.2,504.4 "/>
<polygon points="404.5,600.9 444.9,674.1 475.1,600.9 "/>
<polygon enable-background="new    " points="154.2,504.4 246.3,394.5 142.7,342.3 "/>
<polygon fill="#B8B8B8" points="412.4,600.1 443.1,657.6 373.7,600 "/>
<polygon enable-background="new    " points="246.3,394.5 308.1,255.8 142.7,342.3 "/>
<polygon fill="#A0A0A0" points="373.7,600 412.4,600.1 443.7,548 "/>
<polygon fill="#B8B8B8" points="465.7,515.6 443.7,548 514.4,601.1 "/>
<g>
	<polygon fill="#A0A0A0" points="373.7,600 421.9,686.9 443.1,657.6 	"/>
</g>
<polygon fill="#818181" points="443.7,548 421.9,515.6 465.7,515.6 "/>
<polygon fill="#B8B8B8" points="421.9,515.6 443.7,548 373.7,600 "/>
<polygon fill="#A0A0A0" points="443.7,548 475.9,600.1 514.4,601.1 "/>
<polygon fill="#B8B8B8" points="475.9,600.1 514.4,601.1 443.1,657.6 "/>
<polygon fill="#818181" points="465.8,686.9 443.1,657.6 421.9,686.9 "/>
<polygon fill="#A0A0A0" points="514.4,601.1 465.8,686.9 443.1,657.6 "/>
<g id="test-illu02_1_">
</g>
<polygon fill="#A0A0A0" points="604.1,582.2 746.3,557.4 600.3,585.3 "/>
<polygon fill="#B8B8B8" points="604.1,582.2 746.3,546 746.3,557.4 "/>
<polygon fill="#B8B8B8" points="22.3,532.3 308.3,584.3 23.2,523.3 "/>
<polygon fill="#A0A0A0" points="308.6,584 22.6,532 312.6,587.7 "/>
</svg>
